# Blender 4.2.0
# www.blender.org
mtllib missile.mtl
o missile
v 0.000000 0.402623 -5.812223
v 0.000000 0.500000 5.807776
v 0.078548 0.394886 -5.812223
v 0.097545 0.490392 5.807776
v 0.154077 0.371975 -5.812223
v 0.191342 0.461939 5.807776
v 0.223685 0.334768 -5.812223
v 0.277785 0.415735 5.807776
v 0.284697 0.284697 -5.812223
v 0.353553 0.353553 5.807776
v 0.334768 0.223685 -5.812223
v 0.415735 0.277785 5.807776
v 0.371974 0.154077 -5.812223
v 0.461940 0.191341 5.807776
v 0.394886 0.078548 -5.812223
v 0.490393 0.097545 5.807776
v 0.402622 0.000000 -5.812223
v 0.500000 -0.000000 5.807776
v 0.394886 -0.078547 -5.812223
v 0.490393 -0.097545 5.807776
v 0.371975 -0.154077 -5.812223
v 0.461940 -0.191342 5.807776
v 0.334768 -0.223685 -5.812223
v 0.415735 -0.277785 5.807776
v 0.284697 -0.284697 -5.812223
v 0.353553 -0.353554 5.807776
v 0.223685 -0.334768 -5.812223
v 0.277785 -0.415735 5.807776
v 0.154077 -0.371974 -5.812223
v 0.191342 -0.461940 5.807776
v 0.078548 -0.394886 -5.812223
v 0.097545 -0.490393 5.807776
v -0.000000 -0.402622 -5.812223
v -0.000000 -0.500000 5.807776
v -0.078548 -0.394886 -5.812223
v -0.097545 -0.490393 5.807776
v -0.154077 -0.371974 -5.812223
v -0.191342 -0.461940 5.807776
v -0.223685 -0.334768 -5.812223
v -0.277785 -0.415735 5.807776
v -0.284697 -0.284697 -5.812223
v -0.353553 -0.353554 5.807776
v -0.334768 -0.223685 -5.812223
v -0.415735 -0.277785 5.807776
v -0.371974 -0.154077 -5.812223
v -0.461940 -0.191342 5.807776
v -0.394886 -0.078547 -5.812223
v -0.490393 -0.097545 5.807776
v -0.402622 0.000000 -5.812223
v -0.500000 -0.000000 5.807776
v -0.394886 0.078548 -5.812223
v -0.490393 0.097545 5.807776
v -0.371974 0.154077 -5.812223
v -0.461940 0.191342 5.807776
v -0.334768 0.223685 -5.812223
v -0.415735 0.277785 5.807776
v -0.284697 0.284697 -5.812223
v -0.353553 0.353553 5.807776
v -0.223685 0.334768 -5.812223
v -0.277785 0.415735 5.807776
v -0.154077 0.371975 -5.812223
v -0.191342 0.461940 5.807776
v -0.078548 0.394886 -5.812223
v -0.097545 0.490392 5.807776
v 0.003144 0.015798 8.952960
v 0.000001 0.016107 8.952960
v 0.006165 0.014881 8.952960
v 0.008950 0.013393 8.952960
v 0.011391 0.011389 8.952960
v 0.013394 0.008949 8.952960
v 0.014883 0.006164 8.952960
v 0.015799 0.003142 8.952960
v 0.016109 -0.000000 8.952960
v 0.015799 -0.003143 8.952960
v 0.014883 -0.006165 8.952960
v 0.013394 -0.008949 8.952960
v 0.011391 -0.011390 8.952960
v 0.008950 -0.013393 8.952960
v 0.006165 -0.014882 8.952960
v 0.003144 -0.015799 8.952960
v 0.000001 -0.016108 8.952960
v -0.003141 -0.015799 8.952960
v -0.006163 -0.014882 8.952960
v -0.008948 -0.013393 8.952960
v -0.011389 -0.011390 8.952960
v -0.013392 -0.008949 8.952960
v -0.014880 -0.006165 8.952960
v -0.015797 -0.003143 8.952960
v -0.016106 -0.000000 8.952960
v -0.015797 0.003142 8.952960
v -0.014880 0.006164 8.952960
v -0.013392 0.008949 8.952960
v -0.011389 0.011389 8.952960
v -0.008948 0.013393 8.952960
v -0.006163 0.014881 8.952960
v -0.003141 0.015798 8.952960
v 0.000000 0.500000 4.720744
v 0.097545 0.490392 4.720744
v 0.191342 0.461940 4.720744
v 0.277785 0.415735 4.720744
v 0.353553 0.353553 4.720744
v 0.415735 0.277785 4.720744
v 0.461940 0.191342 4.720744
v 0.490393 0.097545 4.720744
v 0.500000 -0.000000 4.720744
v 0.490393 -0.097545 4.720744
v 0.461940 -0.191342 4.720744
v 0.415735 -0.277785 4.720744
v 0.353553 -0.353554 4.720744
v 0.277785 -0.415735 4.720744
v 0.191342 -0.461940 4.720744
v 0.097545 -0.490393 4.720744
v -0.000000 -0.500000 4.720744
v -0.097545 -0.490393 4.720744
v -0.191342 -0.461940 4.720744
v -0.277785 -0.415735 4.720744
v -0.353553 -0.353554 4.720744
v -0.415735 -0.277785 4.720744
v -0.461940 -0.191342 4.720744
v -0.490393 -0.097545 4.720744
v -0.500000 -0.000000 4.720744
v -0.490393 0.097545 4.720744
v -0.461940 0.191342 4.720744
v -0.415735 0.277785 4.720744
v -0.353553 0.353553 4.720744
v -0.277785 0.415735 4.720744
v -0.191342 0.461940 4.720744
v -0.097545 0.490392 4.720744
v 0.097545 0.490392 3.297643
v 0.191342 0.461940 3.297643
v 0.277785 0.415735 3.297643
v 0.353553 0.353553 3.297643
v 0.415735 0.277785 3.297643
v 0.461940 0.191342 3.297643
v 0.490393 0.097545 3.297643
v 0.500000 -0.000000 3.297643
v 0.490393 -0.097545 3.297643
v 0.461940 -0.191342 3.297643
v 0.415735 -0.277785 3.297643
v 0.353553 -0.353554 3.297643
v 0.277785 -0.415735 3.297643
v 0.191342 -0.461940 3.297643
v 0.097545 -0.490393 3.297643
v -0.000000 -0.500000 3.297643
v -0.097545 -0.490393 3.297643
v -0.191342 -0.461940 3.297643
v -0.277785 -0.415735 3.297643
v -0.353553 -0.353554 3.297643
v -0.415735 -0.277785 3.297643
v -0.461940 -0.191342 3.297643
v -0.490393 -0.097545 3.297643
v -0.500000 -0.000000 3.297643
v -0.490393 0.097545 3.297643
v -0.461940 0.191342 3.297643
v -0.415735 0.277785 3.297643
v -0.353553 0.353553 3.297643
v -0.277785 0.415735 3.297643
v -0.191342 0.461940 3.297643
v -0.097545 0.490393 3.297643
v 0.000000 0.500000 3.297643
v -1.547879 0.418330 3.485456
v -1.519426 0.512127 3.485456
v -0.418330 -1.547879 3.485456
v -0.512127 -1.519426 3.485456
v 1.547879 -0.418330 3.485456
v 1.519426 -0.512126 3.485456
v 0.418330 1.547878 3.485456
v 0.512127 1.519426 3.485456
v 0.418330 1.547878 3.297643
v 0.512127 1.519426 3.297643
v 1.547879 -0.418330 3.297643
v 1.519426 -0.512126 3.297643
v -0.418330 -1.547879 3.297643
v -0.512127 -1.519426 3.297643
v -1.547879 0.418330 3.297643
v -1.519426 0.512127 3.297643
v 0.097545 0.490393 -5.509740
v 0.191342 0.461940 -5.509740
v 0.277785 0.415735 -5.509740
v 0.353553 0.353554 -5.509740
v 0.415735 0.277785 -5.509740
v 0.461940 0.191342 -5.509740
v 0.490393 0.097545 -5.509740
v 0.500000 0.000000 -5.509740
v 0.490393 -0.097545 -5.509740
v 0.461940 -0.191341 -5.509740
v 0.415735 -0.277785 -5.509740
v 0.353553 -0.353553 -5.509740
v 0.277785 -0.415735 -5.509740
v 0.191342 -0.461940 -5.509740
v 0.097545 -0.490392 -5.509740
v -0.000000 -0.500000 -5.509740
v -0.097545 -0.490392 -5.509740
v -0.191342 -0.461940 -5.509740
v -0.277785 -0.415735 -5.509740
v -0.353553 -0.353553 -5.509740
v -0.415735 -0.277785 -5.509740
v -0.461940 -0.191342 -5.509740
v -0.490393 -0.097545 -5.509740
v -0.500000 0.000000 -5.509740
v -0.490393 0.097545 -5.509740
v -0.461940 0.191342 -5.509740
v -0.415735 0.277785 -5.509740
v -0.353553 0.353554 -5.509740
v -0.277785 0.415735 -5.509740
v -0.191342 0.461940 -5.509740
v -0.097545 0.490393 -5.509740
v 0.000000 0.500000 -5.509740
v 0.000000 0.500000 -4.274695
v 0.097545 0.490393 -4.274695
v 0.191342 0.461940 -4.274695
v 0.277785 0.415735 -4.274695
v 0.353553 0.353554 -4.274695
v 0.415735 0.277785 -4.274695
v 0.461940 0.191342 -4.274695
v 0.490393 0.097545 -4.274695
v 0.500000 0.000000 -4.274695
v 0.490393 -0.097545 -4.274695
v 0.461940 -0.191342 -4.274695
v 0.415735 -0.277785 -4.274695
v 0.353553 -0.353553 -4.274695
v 0.277785 -0.415735 -4.274695
v 0.191342 -0.461940 -4.274695
v 0.097545 -0.490392 -4.274695
v -0.000000 -0.500000 -4.274695
v -0.097545 -0.490392 -4.274695
v -0.191342 -0.461940 -4.274695
v -0.277785 -0.415735 -4.274695
v -0.353553 -0.353553 -4.274695
v -0.415735 -0.277785 -4.274695
v -0.461940 -0.191342 -4.274695
v -0.490393 -0.097545 -4.274695
v -0.500000 0.000000 -4.274695
v -0.490393 0.097545 -4.274695
v -0.461940 0.191342 -4.274695
v -0.415735 0.277785 -4.274695
v -0.353553 0.353554 -4.274695
v -0.277785 0.415735 -4.274695
v -0.191342 0.461940 -4.274695
v -0.097545 0.490393 -4.274695
v 0.621624 2.218051 -5.268996
v 0.621624 2.218051 -5.509740
v 0.715421 2.189598 -5.268996
v 0.715421 2.189598 -5.509740
v 2.218051 -0.621624 -5.268996
v 2.218051 -0.621624 -5.509740
v 2.189598 -0.715420 -5.268996
v 2.189598 -0.715420 -5.509740
v -0.621625 -2.218050 -5.268996
v -0.621625 -2.218050 -5.509740
v -0.715421 -2.189598 -5.268996
v -0.715421 -2.189598 -5.509740
v -2.218051 0.621625 -5.268996
v -2.218051 0.621625 -5.509740
v -2.189598 0.715422 -5.268996
v -2.189598 0.715422 -5.509740
v 0.097545 0.490393 -5.671609
v 0.191342 0.461940 -5.671609
v 0.277785 0.415735 -5.671609
v 0.353553 0.353554 -5.671609
v 0.415735 0.277785 -5.671609
v 0.461940 0.191342 -5.671609
v 0.490393 0.097545 -5.671609
v 0.500000 0.000000 -5.671609
v 0.490393 -0.097545 -5.671609
v 0.461940 -0.191341 -5.671609
v 0.415735 -0.277785 -5.671609
v 0.353553 -0.353553 -5.671609
v 0.277785 -0.415735 -5.671609
v 0.191342 -0.461940 -5.671609
v 0.097545 -0.490392 -5.671609
v -0.000000 -0.500000 -5.671609
v -0.097545 -0.490392 -5.671609
v -0.191342 -0.461940 -5.671609
v -0.277785 -0.415735 -5.671609
v -0.353553 -0.353553 -5.671609
v -0.415735 -0.277785 -5.671609
v -0.461940 -0.191342 -5.671609
v -0.490393 -0.097545 -5.671609
v -0.500000 0.000000 -5.671609
v -0.490393 0.097545 -5.671609
v -0.461940 0.191342 -5.671609
v -0.415735 0.277785 -5.671609
v -0.353553 0.353554 -5.671609
v -0.277785 0.415735 -5.671609
v -0.191342 0.461940 -5.671609
v -0.097545 0.490393 -5.671609
v 0.000000 0.500000 -5.671609
v 0.000000 0.402623 -4.883530
v 0.078548 0.394886 -4.883530
v 0.154077 0.371975 -4.883530
v 0.223685 0.334768 -4.883530
v 0.284697 0.284697 -4.883530
v 0.334768 0.223685 -4.883530
v 0.371974 0.154077 -4.883530
v 0.394886 0.078548 -4.883530
v 0.402622 0.000000 -4.883530
v 0.394886 -0.078548 -4.883530
v 0.371975 -0.154077 -4.883530
v 0.334768 -0.223685 -4.883530
v 0.284697 -0.284697 -4.883530
v 0.223685 -0.334768 -4.883530
v 0.154077 -0.371974 -4.883530
v 0.078548 -0.394886 -4.883530
v -0.000000 -0.402622 -4.883530
v -0.078548 -0.394886 -4.883530
v -0.154077 -0.371974 -4.883530
v -0.223685 -0.334768 -4.883530
v -0.284697 -0.284697 -4.883530
v -0.334768 -0.223685 -4.883530
v -0.371974 -0.154077 -4.883530
v -0.394886 -0.078548 -4.883530
v -0.402622 0.000000 -4.883530
v -0.394886 0.078548 -4.883530
v -0.371974 0.154077 -4.883530
v -0.334768 0.223685 -4.883530
v -0.284697 0.284697 -4.883530
v -0.223685 0.334768 -4.883530
v -0.154077 0.371975 -4.883530
v -0.078548 0.394886 -4.883530
v -0.334768 0.223685 -5.812223
v -0.461940 0.191342 -5.671609
v 0.353553 -0.353553 -5.671609
v -0.402622 0.000000 -5.812223
v 0.461940 -0.191341 -5.671609
v -0.415735 -0.277785 -5.671609
v 0.490393 -0.097545 -5.671609
v -0.223685 -0.334768 -5.812223
v 0.490393 0.097545 -5.671609
v -0.000000 -0.500000 -5.671609
v 0.461940 0.191342 -5.671609
v 0.191342 -0.461940 -5.671609
v 0.334768 0.223685 -5.812223
v 0.415735 -0.277785 -5.671609
v 0.353553 0.353554 -5.671609
v 0.500000 0.000000 -5.671609
v 0.223685 0.334768 -5.812223
v 0.415735 0.277785 -5.671609
v 0.191342 0.461940 -5.671609
v 0.277785 0.415735 -5.671609
v 0.078548 0.394886 -5.812223
v 0.097545 0.490393 -5.671609
v 0.000000 0.402623 -5.812223
v -0.154077 0.371975 -5.812223
v 0.000000 0.500000 -5.671609
v -0.277785 0.415735 -5.671609
v -0.097545 0.490393 -5.671609
v -0.415735 0.277785 -5.671609
v -0.223685 0.334768 -5.812223
v -0.500000 0.000000 -5.671609
v -0.353553 0.353554 -5.671609
v -0.371974 -0.154077 -5.812223
v -0.371974 0.154077 -5.812223
v -0.277785 -0.415735 -5.671609
v -0.490393 0.097545 -5.671609
v -0.078548 -0.394886 -5.812223
v -0.490393 -0.097545 -5.671609
v 0.078548 -0.394886 -5.812223
v -0.394886 -0.078547 -5.812223
v 0.284697 -0.284697 -5.812223
v -0.334768 -0.223685 -5.812223
v 0.394886 -0.078547 -5.812223
v -0.353553 -0.353553 -5.671609
v 0.371974 0.154077 -5.812223
v -0.191342 -0.461940 -5.671609
v 0.284697 0.284697 -5.812223
v -0.154077 -0.371974 -5.812223
v 0.154077 0.371975 -5.812223
v -0.000000 -0.402622 -5.812223
v -0.078548 0.394886 -5.812223
v 0.097545 -0.490392 -5.671609
v -0.191342 0.461940 -5.671609
v 0.154077 -0.371974 -5.812223
v -0.284697 0.284697 -5.812223
v 0.277785 -0.415735 -5.671609
v -0.394886 0.078548 -5.812223
v 0.334768 -0.223685 -5.812223
v -0.461940 -0.191342 -5.671609
v 0.371975 -0.154077 -5.812223
v -0.284697 -0.284697 -5.812223
v 0.402622 0.000000 -5.812223
v -0.097545 -0.490392 -5.671609
v 0.394886 0.078548 -5.812223
v 0.223685 -0.334768 -5.812223
v 0.000000 0.402623 -5.812223
v 0.078548 0.394886 -5.812223
v 0.097545 0.490393 -5.671609
v 0.154077 0.371975 -5.812223
v 0.191342 0.461940 -5.671609
v 0.223685 0.334768 -5.812223
v 0.277785 0.415735 -5.671609
v 0.284697 0.284697 -5.812223
v 0.353553 0.353554 -5.671609
v 0.334768 0.223685 -5.812223
v 0.415735 0.277785 -5.671609
v 0.371974 0.154077 -5.812223
v 0.461940 0.191342 -5.671609
v 0.394886 0.078548 -5.812223
v 0.490393 0.097545 -5.671609
v 0.402622 0.000000 -5.812223
v 0.500000 0.000000 -5.671609
v 0.394886 -0.078547 -5.812223
v 0.490393 -0.097545 -5.671609
v 0.371975 -0.154077 -5.812223
v 0.461940 -0.191341 -5.671609
v 0.334768 -0.223685 -5.812223
v 0.415735 -0.277785 -5.671609
v 0.284697 -0.284697 -5.812223
v 0.353553 -0.353553 -5.671609
v 0.223685 -0.334768 -5.812223
v 0.277785 -0.415735 -5.671609
v 0.154077 -0.371974 -5.812223
v 0.191342 -0.461940 -5.671609
v 0.078548 -0.394886 -5.812223
v 0.097545 -0.490392 -5.671609
v -0.000000 -0.402622 -5.812223
v -0.000000 -0.500000 -5.671609
v -0.078548 -0.394886 -5.812223
v -0.097545 -0.490392 -5.671609
v -0.154077 -0.371974 -5.812223
v -0.191342 -0.461940 -5.671609
v -0.223685 -0.334768 -5.812223
v -0.277785 -0.415735 -5.671609
v -0.284697 -0.284697 -5.812223
v -0.353553 -0.353553 -5.671609
v -0.334768 -0.223685 -5.812223
v -0.415735 -0.277785 -5.671609
v -0.371974 -0.154077 -5.812223
v -0.461940 -0.191342 -5.671609
v -0.394886 -0.078547 -5.812223
v -0.490393 -0.097545 -5.671609
v -0.402622 0.000000 -5.812223
v -0.500000 0.000000 -5.671609
v -0.394886 0.078548 -5.812223
v -0.490393 0.097545 -5.671609
v -0.371974 0.154077 -5.812223
v -0.461940 0.191342 -5.671609
v -0.334768 0.223685 -5.812223
v -0.415735 0.277785 -5.671609
v -0.284697 0.284697 -5.812223
v -0.353553 0.353554 -5.671609
v -0.223685 0.334768 -5.812223
v -0.277785 0.415735 -5.671609
v -0.154077 0.371975 -5.812223
v -0.191342 0.461940 -5.671609
v -0.078548 0.394886 -5.812223
v -0.097545 0.490393 -5.671609
v 0.000000 0.500000 -5.671609
v -0.461940 0.191342 -5.671609
v -0.371974 0.154077 -5.812223
v -0.097545 0.490393 -5.671609
v 0.000000 0.500000 -5.671609
v -0.394886 -0.078547 -5.812223
v -0.402622 0.000000 -5.812223
v -0.191342 0.461940 -5.671609
v -0.415735 -0.277785 -5.671609
v -0.334768 -0.223685 -5.812223
v -0.277785 0.415735 -5.671609
v -0.154077 -0.371974 -5.812223
v -0.223685 -0.334768 -5.812223
v -0.353553 0.353554 -5.671609
v -0.000000 -0.500000 -5.671609
v -0.000000 -0.402622 -5.812223
v -0.415735 0.277785 -5.671609
v 0.191342 -0.461940 -5.671609
v 0.154077 -0.371974 -5.812223
v 0.415735 -0.277785 -5.671609
v 0.334768 -0.223685 -5.812223
v -0.490393 0.097545 -5.671609
v 0.500000 0.000000 -5.671609
v 0.402622 0.000000 -5.812223
v -0.500000 0.000000 -5.671609
v 0.353553 0.353554 -5.671609
v 0.415735 0.277785 -5.671609
v -0.490393 -0.097545 -5.671609
v 0.277785 0.415735 -5.671609
v 0.223685 0.334768 -5.812223
v -0.461940 -0.191342 -5.671609
v 0.097545 0.490393 -5.671609
v 0.078548 0.394886 -5.812223
v 0.191342 0.461940 -5.671609
v -0.353553 -0.353553 -5.671609
v -0.223685 0.334768 -5.812223
v -0.277785 -0.415735 -5.671609
v -0.334768 0.223685 -5.812223
v -0.191342 -0.461940 -5.671609
v -0.097545 -0.490392 -5.671609
v -0.371974 -0.154077 -5.812223
v 0.097545 -0.490392 -5.671609
v -0.078548 -0.394886 -5.812223
v 0.078548 -0.394886 -5.812223
v 0.277785 -0.415735 -5.671609
v 0.284697 -0.284697 -5.812223
v 0.353553 -0.353553 -5.671609
v 0.394886 -0.078547 -5.812223
v 0.334768 0.223685 -5.812223
v 0.371974 0.154077 -5.812223
v 0.461940 -0.191341 -5.671609
v 0.284697 0.284697 -5.812223
v 0.490393 -0.097545 -5.671609
v 0.154077 0.371975 -5.812223
v 0.490393 0.097545 -5.671609
v -0.154077 0.371975 -5.812223
v 0.461940 0.191342 -5.671609
v -0.284697 0.284697 -5.812223
v -0.394886 0.078548 -5.812223
v -0.284697 -0.284697 -5.812223
v -0.078548 0.394886 -5.812223
v 0.000000 0.402623 -5.812223
v 0.371975 -0.154077 -5.812223
v 0.394886 0.078548 -5.812223
v 0.223685 -0.334768 -5.812223
v 0.000000 0.612195 -5.671609
v 0.000000 0.612195 -5.509740
v -0.119433 0.600432 -5.509740
v -0.234277 0.565594 -5.509740
v -0.340117 0.509022 -5.509740
v -0.432887 0.432887 -5.509740
v -0.509021 0.340117 -5.509740
v -0.565594 0.234277 -5.509740
v -0.600432 0.119434 -5.509740
v -0.612195 0.000000 -5.509740
v -0.600432 -0.119433 -5.509740
v -0.565594 -0.234277 -5.509740
v -0.509021 -0.340117 -5.509740
v -0.432887 -0.432887 -5.509740
v -0.340117 -0.509021 -5.509740
v -0.234277 -0.565594 -5.509740
v -0.119433 -0.600431 -5.509740
v -0.000000 -0.612195 -5.509740
v 0.119433 -0.600431 -5.509740
v 0.234277 -0.565594 -5.509740
v 0.340117 -0.509021 -5.509740
v 0.432887 -0.432887 -5.509740
v 0.509021 -0.340117 -5.509740
v 0.565594 -0.234277 -5.509740
v 0.600432 -0.119433 -5.509740
v 0.612195 0.000000 -5.509740
v 0.600432 0.119434 -5.509740
v 0.565594 0.234277 -5.509740
v 0.509021 0.340117 -5.509740
v 0.432887 0.432887 -5.509740
v 0.340117 0.509022 -5.509740
v 0.234277 0.565594 -5.509740
v 0.119433 0.600432 -5.509740
v 0.119433 0.600432 -5.671609
v 0.234277 0.565594 -5.671609
v 0.340117 0.509022 -5.671609
v 0.432887 0.432887 -5.671609
v 0.509021 0.340117 -5.671609
v 0.565594 0.234277 -5.671609
v 0.600432 0.119434 -5.671609
v 0.612195 0.000000 -5.671609
v 0.600432 -0.119433 -5.671609
v 0.565594 -0.234277 -5.671609
v 0.509021 -0.340117 -5.671609
v 0.432887 -0.432887 -5.671609
v 0.340117 -0.509021 -5.671609
v 0.234277 -0.565594 -5.671609
v 0.119433 -0.600431 -5.671609
v -0.000000 -0.612195 -5.671609
v -0.119433 -0.600431 -5.671609
v -0.234277 -0.565594 -5.671609
v -0.340117 -0.509021 -5.671609
v -0.432887 -0.432887 -5.671609
v -0.509021 -0.340117 -5.671609
v -0.565594 -0.234277 -5.671609
v -0.600432 -0.119433 -5.671609
v -0.612195 0.000000 -5.671609
v -0.600432 0.119434 -5.671609
v -0.565594 0.234277 -5.671609
v -0.509021 0.340117 -5.671609
v -0.432887 0.432887 -5.671609
v -0.340117 0.509022 -5.671609
v -0.234277 0.565594 -5.671609
v -0.119433 0.600432 -5.671609
v -0.371974 0.154077 -5.993509
v -0.394886 -0.078547 -5.993509
v -0.402622 0.000000 -5.993509
v -0.334768 -0.223685 -5.993509
v -0.154077 -0.371974 -5.993509
v -0.223685 -0.334768 -5.993509
v -0.000000 -0.402622 -5.993509
v 0.154077 -0.371974 -5.993509
v 0.334768 -0.223685 -5.993509
v 0.402622 0.000000 -5.993509
v 0.223685 0.334768 -5.993509
v 0.078548 0.394886 -5.993509
v -0.223685 0.334768 -5.993509
v -0.334768 0.223685 -5.993509
v -0.371974 -0.154077 -5.993509
v -0.078548 -0.394886 -5.993509
v 0.078548 -0.394886 -5.993509
v 0.284697 -0.284697 -5.993509
v 0.394886 -0.078547 -5.993509
v 0.334768 0.223685 -5.993509
v 0.371974 0.154077 -5.993509
v 0.284697 0.284697 -5.993509
v 0.154077 0.371975 -5.993509
v -0.154077 0.371975 -5.993509
v -0.284697 0.284697 -5.993509
v -0.394886 0.078548 -5.993509
v -0.284697 -0.284697 -5.993509
v -0.078548 0.394886 -5.993509
v 0.000000 0.402623 -5.993509
v 0.371975 -0.154077 -5.993509
v 0.394886 0.078548 -5.993509
v 0.223685 -0.334768 -5.993509
v 0.000000 0.500000 1.364472
v 0.097545 0.490393 1.364472
v 0.191342 0.461940 1.364472
v 0.277785 0.415735 1.364472
v 0.353553 0.353553 1.364472
v 0.415735 0.277785 1.364472
v 0.461940 0.191342 1.364472
v 0.490393 0.097545 1.364472
v 0.500000 -0.000000 1.364472
v 0.490393 -0.097545 1.364472
v 0.461940 -0.191342 1.364472
v 0.415735 -0.277785 1.364472
v 0.353553 -0.353553 1.364472
v 0.277785 -0.415735 1.364472
v 0.191342 -0.461940 1.364472
v 0.097545 -0.490393 1.364472
v -0.000000 -0.500000 1.364472
v -0.097545 -0.490393 1.364472
v -0.191342 -0.461940 1.364472
v -0.277785 -0.415735 1.364472
v -0.353553 -0.353553 1.364472
v -0.415735 -0.277785 1.364472
v -0.461940 -0.191342 1.364472
v -0.490393 -0.097545 1.364472
v -0.500000 -0.000000 1.364472
v -0.490393 0.097545 1.364472
v -0.461940 0.191342 1.364472
v -0.415735 0.277785 1.364472
v -0.353553 0.353553 1.364472
v -0.277785 0.415735 1.364472
v -0.191342 0.461940 1.364472
v -0.097545 0.490393 1.364472
v 0.097545 0.490393 1.186590
v 0.191342 0.461940 1.186590
v 0.277785 0.415735 1.186590
v 0.353553 0.353553 1.186590
v 0.415735 0.277785 1.186590
v 0.461940 0.191342 1.186590
v 0.490393 0.097545 1.186590
v 0.500000 -0.000000 1.186590
v 0.490393 -0.097545 1.186590
v 0.461940 -0.191342 1.186590
v 0.415735 -0.277785 1.186590
v 0.353553 -0.353553 1.186590
v 0.277785 -0.415735 1.186590
v 0.191342 -0.461940 1.186590
v 0.097545 -0.490393 1.186590
v -0.000000 -0.500000 1.186590
v -0.097545 -0.490393 1.186590
v -0.191342 -0.461940 1.186590
v -0.277785 -0.415735 1.186590
v -0.353553 -0.353553 1.186590
v -0.415735 -0.277785 1.186590
v -0.461940 -0.191342 1.186590
v -0.490393 -0.097545 1.186590
v -0.500000 -0.000000 1.186590
v -0.490393 0.097545 1.186590
v -0.461940 0.191342 1.186590
v -0.415735 0.277785 1.186590
v -0.353553 0.353553 1.186590
v -0.277785 0.415735 1.186590
v -0.191342 0.461940 1.186590
v -0.097545 0.490393 1.186590
v 0.000000 0.500000 1.186590
vn 0.0980 0.9952 -0.0000
vn 0.2903 0.9569 -0.0000
vn 0.4714 0.8819 -0.0000
vn 0.6344 0.7730 -0.0000
vn 0.7730 0.6344 -0.0000
vn 0.8819 0.4714 -0.0000
vn 0.9569 0.2903 -0.0000
vn 0.9952 0.0980 -0.0000
vn 0.9952 -0.0980 -0.0000
vn 0.9569 -0.2903 -0.0000
vn 0.8819 -0.4714 -0.0000
vn 0.7730 -0.6344 -0.0000
vn 0.6344 -0.7730 -0.0000
vn 0.4714 -0.8819 -0.0000
vn 0.2903 -0.9569 -0.0000
vn 0.0980 -0.9952 -0.0000
vn -0.0980 -0.9952 -0.0000
vn -0.2903 -0.9569 -0.0000
vn -0.4714 -0.8819 -0.0000
vn -0.6344 -0.7730 -0.0000
vn -0.7730 -0.6344 -0.0000
vn -0.8819 -0.4714 -0.0000
vn -0.9569 -0.2903 -0.0000
vn -0.9952 -0.0980 -0.0000
vn -0.9952 0.0980 -0.0000
vn -0.9569 0.2903 -0.0000
vn -0.8819 0.4714 -0.0000
vn -0.7730 0.6344 -0.0000
vn -0.6344 0.7730 -0.0000
vn -0.4714 0.8819 -0.0000
vn 0.2869 -0.9459 0.1513
vn -0.2903 0.9569 -0.0000
vn -0.0980 0.9952 -0.0000
vn -0.0000 -0.0000 1.0000
vn -0.9837 -0.0969 0.1513
vn 0.2869 0.9459 0.1513
vn 0.8718 -0.4660 0.1513
vn -0.6271 -0.7641 0.1513
vn -0.6271 0.7641 0.1513
vn 0.9459 0.2869 0.1513
vn 0.0969 -0.9837 0.1513
vn -0.9837 0.0969 0.1513
vn 0.4660 0.8718 0.1513
vn 0.7641 -0.6271 0.1513
vn -0.7641 -0.6271 0.1513
vn -0.4660 0.8718 0.1513
vn 0.9837 0.0969 0.1513
vn -0.0969 -0.9837 0.1513
vn -0.9459 0.2869 0.1513
vn 0.6271 0.7641 0.1513
vn 0.6271 -0.7641 0.1513
vn -0.8718 -0.4660 0.1513
vn -0.2869 0.9459 0.1513
vn 0.9837 -0.0969 0.1513
vn -0.2869 -0.9459 0.1513
vn -0.8718 0.4660 0.1513
vn 0.7641 0.6271 0.1513
vn 0.4660 -0.8718 0.1513
vn -0.9459 -0.2869 0.1513
vn 0.0969 0.9837 0.1513
vn -0.0969 0.9837 0.1513
vn 0.9459 -0.2869 0.1513
vn -0.4660 -0.8718 0.1513
vn -0.7641 0.6271 0.1513
vn 0.8718 0.4660 0.1513
vn -0.0000 -0.0000 -1.0000
vn -0.7132 0.2163 0.6667
vn -0.2163 -0.7132 0.6667
vn 0.7132 -0.2163 0.6667
vn 0.2163 0.7132 0.6667
vn 0.1400 0.4616 0.8759
vn 0.4616 -0.1400 0.8759
vn -0.1400 -0.4616 0.8759
vn -0.4616 0.1400 0.8759
vn -0.0000 1.0000 -0.0000
vn -0.0807 0.8194 -0.5675
vn -0.2390 0.7879 -0.5675
vn -0.3881 0.7262 -0.5675
vn -0.5224 0.6365 -0.5675
vn -0.6365 0.5224 -0.5675
vn -0.7262 0.3881 -0.5675
vn -0.7879 0.2390 -0.5675
vn -0.8194 0.0807 -0.5675
vn -0.8194 -0.0807 -0.5675
vn -0.7879 -0.2390 -0.5675
vn -0.7262 -0.3881 -0.5675
vn -0.6365 -0.5224 -0.5675
vn -0.5224 -0.6365 -0.5675
vn -0.3881 -0.7262 -0.5675
vn -0.2390 -0.7879 -0.5675
vn -0.0807 -0.8194 -0.5675
vn 0.0807 -0.8194 -0.5675
vn 0.2390 -0.7879 -0.5675
vn 0.3881 -0.7262 -0.5675
vn 0.5224 -0.6365 -0.5675
vn 0.6365 -0.5224 -0.5675
vn 0.7262 -0.3881 -0.5675
vn 0.7879 -0.2390 -0.5675
vn 0.8194 -0.0807 -0.5675
vn 0.8194 0.0807 -0.5675
vn 0.7879 0.2390 -0.5675
vn 0.7262 0.3881 -0.5675
vn 0.6365 0.5224 -0.5675
vn 0.5224 0.6365 -0.5675
vn 0.3881 0.7262 -0.5675
vn 0.2390 0.7879 -0.5675
vn 0.0807 0.8194 -0.5675
vn -0.0000 -0.0019 1.0000
vn -0.0000 0.0038 1.0000
vn -0.0000 0.0010 1.0000
vn -0.0000 -0.0007 1.0000
vn -0.0000 0.0019 1.0000
vn -0.0000 -0.0010 1.0000
vn -0.0000 0.0007 1.0000
vn -0.0000 -0.0005 1.0000
vn -0.0000 0.0005 1.0000
vn -0.9459 -0.2870 0.1513
vn -0.0000 0.0001 -1.0000
vn -0.0000 -0.0001 -1.0000
vt 0.984375 0.984375
vt 0.969727 0.962450
vt 0.984375 0.962450
vt 0.969727 0.984375
vt 0.955078 0.962450
vt 0.955078 0.984375
vt 0.940430 0.962450
vt 0.940430 0.984375
vt 0.925781 0.962450
vt 0.925781 0.984375
vt 0.911133 0.962450
vt 0.911133 0.984375
vt 0.896484 0.962450
vt 0.896484 0.984375
vt 0.881836 0.962450
vt 0.881836 0.984375
vt 0.867188 0.962450
vt 0.852539 0.984375
vt 0.852539 0.962450
vt 0.837891 0.962450
vt 0.837891 0.984375
vt 0.823242 0.962450
vt 0.823242 0.984375
vt 0.808594 0.962450
vt 0.808594 0.984375
vt 0.793945 0.962450
vt 0.793945 0.984375
vt 0.779297 0.962450
vt 0.764648 0.984375
vt 0.764648 0.962450
vt 0.750000 0.962450
vt 0.735352 0.984375
vt 0.735352 0.962450
vt 0.720703 0.984375
vt 0.720703 0.962450
vt 0.706055 0.962450
vt 0.706055 0.984375
vt 0.691406 0.962450
vt 0.691406 0.984375
vt 0.676758 0.962450
vt 0.676758 0.984375
vt 0.662109 0.962450
vt 0.662109 0.984375
vt 0.647461 0.962450
vt 0.647461 0.984375
vt 0.632812 0.962450
vt 0.632812 0.984375
vt 0.618164 0.962450
vt 0.618164 0.984375
vt 0.603516 0.962450
vt 0.588867 0.984375
vt 0.588867 0.962450
vt 0.574219 0.962450
vt 0.574219 0.984375
vt 0.559570 0.962450
vt 0.559570 0.984375
vt 0.544922 0.962450
vt 0.279297 0.515625
vt 0.264648 0.515625
vt 0.544922 0.984375
vt 0.530273 0.962450
vt 0.515625 0.984375
vt 0.515625 0.962450
vt 0.279297 0.750000
vt 0.293945 0.750000
vt 0.089761 0.528876
vt 0.236749 0.589761
vt 0.175864 0.736749
vt 0.132812 0.515625
vt 0.147461 0.515625
vt 0.469727 0.515625
vt 0.455078 0.515625
vt 0.323242 0.515625
vt 0.337891 0.515625
vt 0.206055 0.515625
vt 0.191406 0.515625
vt 0.059570 0.515625
vt 0.074219 0.515625
vt 0.381836 0.515625
vt 0.396484 0.515625
vt 0.250000 0.515625
vt 0.118164 0.515625
vt 0.440430 0.515625
vt 0.308594 0.515625
vt 0.176758 0.515625
vt 0.044922 0.515625
vt 0.367188 0.515625
vt 0.235352 0.515625
vt 0.103516 0.515625
vt 0.425781 0.515625
vt 0.293945 0.515625
vt 0.162109 0.515625
vt 0.030273 0.515625
vt 0.352539 0.515625
vt 0.220703 0.515625
vt 0.088867 0.515625
vt 0.411133 0.515625
vt 0.484375 0.515625
vt 0.015625 0.515625
vt 0.530273 0.933746
vt 0.515625 0.933746
vt 0.544922 0.933746
vt 0.559570 0.933746
vt 0.574219 0.933746
vt 0.588867 0.933746
vt 0.603516 0.933746
vt 0.735352 0.933746
vt 0.618164 0.933746
vt 0.632812 0.933746
vt 0.647461 0.933746
vt 0.662109 0.933746
vt 0.676758 0.933746
vt 0.691406 0.933746
vt 0.706055 0.933746
vt 0.720703 0.933746
vt 0.955078 0.933746
vt 0.750000 0.933746
vt 0.764648 0.933746
vt 0.779297 0.933746
vt 0.793945 0.933746
vt 0.808594 0.933746
vt 0.823242 0.933746
vt 0.837891 0.933746
vt 0.852539 0.933746
vt 0.867188 0.933746
vt 0.881836 0.933746
vt 0.896484 0.933746
vt 0.911133 0.933746
vt 0.925781 0.933746
vt 0.940430 0.933746
vt 0.969727 0.933746
vt 0.984375 0.933746
vt 0.969727 0.894754
vt 0.984375 0.894754
vt 0.955078 0.894754
vt 0.940430 0.894754
vt 0.925781 0.894754
vt 0.911133 0.894754
vt 0.896484 0.894754
vt 0.881836 0.894754
vt 0.867188 0.894754
vt 0.852539 0.894754
vt 0.837891 0.894754
vt 0.823242 0.894754
vt 0.808594 0.894754
vt 0.793945 0.894754
vt 0.779297 0.894754
vt 0.764648 0.894754
vt 0.750000 0.894754
vt 0.735352 0.894754
vt 0.720703 0.894754
vt 0.706055 0.894754
vt 0.691406 0.894754
vt 0.676758 0.894754
vt 0.662109 0.894754
vt 0.647461 0.894754
vt 0.632812 0.894754
vt 0.618164 0.894754
vt 0.603516 0.894754
vt 0.588867 0.894754
vt 0.574219 0.894754
vt 0.559570 0.894754
vt 0.544922 0.894754
vt 0.530273 0.894754
vt 0.515625 0.894754
vt 0.455078 0.933746
vt 0.469727 0.933746
vt 0.103516 0.962450
vt 0.118164 0.962450
vt 0.337891 0.933746
vt 0.352539 0.933746
vt 0.220703 0.962450
vt 0.235352 0.962450
vt 0.220703 0.933746
vt 0.235352 0.933746
vt 0.337891 0.962450
vt 0.352539 0.962450
vt 0.118164 0.933746
vt 0.103516 0.933746
vt 0.469727 0.962450
vt 0.455078 0.962450
vt 0.469727 0.752836
vt 0.455078 0.752836
vt 0.469727 0.756101
vt 0.455078 0.756101
vt 0.074219 0.752836
vt 0.088867 0.752836
vt 0.074219 0.756101
vt 0.059570 0.756101
vt 0.484375 0.752836
vt 0.440430 0.756101
vt 0.103516 0.752836
vt 0.044922 0.756101
vt 0.425781 0.756101
vt 0.118164 0.752836
vt 0.030273 0.756101
vt 0.411133 0.756101
vt 0.132812 0.752836
vt 0.015625 0.756101
vt 0.396484 0.756101
vt 0.147461 0.752836
vt 0.381836 0.756101
vt 0.162109 0.752836
vt 0.367188 0.756101
vt 0.176758 0.752836
vt 0.352539 0.756101
vt 0.191406 0.752836
vt 0.337891 0.756101
vt 0.206055 0.752836
vt 0.323242 0.756101
vt 0.220703 0.752836
vt 0.308594 0.756101
vt 0.235352 0.752836
vt 0.293945 0.756101
vt 0.250000 0.752836
vt 0.279297 0.756101
vt 0.264648 0.752836
vt 0.530273 0.781012
vt 0.515625 0.756101
vt 0.530273 0.756101
vt 0.544922 0.781012
vt 0.544922 0.756101
vt 0.559570 0.781012
vt 0.559570 0.756101
vt 0.574219 0.781012
vt 0.574219 0.756101
vt 0.588867 0.781012
vt 0.588867 0.756101
vt 0.603516 0.781012
vt 0.603516 0.756101
vt 0.969727 0.781012
vt 0.955078 0.781012
vt 0.632812 0.781012
vt 0.618164 0.756101
vt 0.632812 0.756101
vt 0.647461 0.781012
vt 0.647461 0.756101
vt 0.662109 0.781012
vt 0.662109 0.756101
vt 0.676758 0.781012
vt 0.676758 0.756101
vt 0.691406 0.781012
vt 0.691406 0.756101
vt 0.706055 0.781012
vt 0.706055 0.756101
vt 0.720703 0.781012
vt 0.720703 0.756101
vt 0.969727 0.756101
vt 0.750000 0.756101
vt 0.735352 0.781012
vt 0.735352 0.756101
vt 0.764648 0.781012
vt 0.764648 0.756101
vt 0.779297 0.781012
vt 0.779297 0.756101
vt 0.793945 0.781012
vt 0.793945 0.756101
vt 0.808594 0.781012
vt 0.808594 0.756101
vt 0.823242 0.781012
vt 0.823242 0.756101
vt 0.837891 0.781012
vt 0.837891 0.756101
vt 0.852539 0.781012
vt 0.867188 0.756101
vt 0.852539 0.756101
vt 0.881836 0.781012
vt 0.881836 0.756101
vt 0.896484 0.781012
vt 0.896484 0.756101
vt 0.911133 0.781012
vt 0.911133 0.756101
vt 0.925781 0.781012
vt 0.925781 0.756101
vt 0.940430 0.781012
vt 0.940430 0.756101
vt 0.955078 0.756101
vt 0.984375 0.781012
vt 0.984375 0.756101
vt 0.618164 0.781012
vt 0.118164 0.756101
vt 0.103516 0.756101
vt 0.220703 0.756101
vt 0.235352 0.756101
vt 0.015625 0.750000
vt 0.030273 0.750000
vt 0.147461 0.750000
vt 0.162109 0.750000
vt 0.411133 0.750000
vt 0.425781 0.750000
vt 0.044922 0.750000
vt 0.176758 0.750000
vt 0.308594 0.750000
vt 0.440430 0.750000
vt 0.059570 0.750000
vt 0.191406 0.750000
vt 0.323242 0.750000
vt 0.455078 0.750000
vt 0.074219 0.750000
vt 0.206055 0.750000
vt 0.337891 0.750000
vt 0.469727 0.750000
vt 0.088867 0.750000
vt 0.389135 0.522474
vt 0.256849 0.610865
vt 0.345240 0.743151
vt 0.484375 0.750000
vt 0.352539 0.750000
vt 0.220703 0.750000
vt 0.396484 0.750000
vt 0.264648 0.750000
vt 0.132812 0.750000
vt 0.381836 0.750000
vt 0.250000 0.750000
vt 0.118164 0.750000
vt 0.367188 0.750000
vt 0.235352 0.750000
vt 0.103516 0.750000
vt 0.279297 0.752836
vt 0.059570 0.752836
vt 0.044922 0.752836
vt 0.030273 0.752836
vt 0.015625 0.752836
vt 0.411133 0.752836
vt 0.396484 0.752836
vt 0.381836 0.752836
vt 0.440430 0.752836
vt 0.425781 0.752836
vt 0.367188 0.752836
vt 0.352539 0.752836
vt 0.337891 0.752836
vt 0.323242 0.752836
vt 0.308594 0.752836
vt 0.293945 0.752836
vt 0.088867 0.756101
vt 0.132812 0.756101
vt 0.147461 0.756101
vt 0.176758 0.756101
vt 0.191406 0.756101
vt 0.206055 0.756101
vt 0.250000 0.756101
vt 0.264648 0.756101
vt 0.484375 0.756101
vt 0.162109 0.756101
vt 0.030273 0.394754
vt 0.015625 0.391166
vt 0.030273 0.391166
vt 0.044922 0.394754
vt 0.044922 0.391166
vt 0.059570 0.394754
vt 0.059570 0.391166
vt 0.074219 0.394754
vt 0.074219 0.391166
vt 0.088867 0.394754
vt 0.088867 0.391166
vt 0.103516 0.394754
vt 0.103516 0.391166
vt 0.118164 0.394754
vt 0.118164 0.391166
vt 0.132812 0.394754
vt 0.132812 0.391166
vt 0.147461 0.394754
vt 0.147461 0.391166
vt 0.162109 0.394754
vt 0.162109 0.391166
vt 0.176758 0.394754
vt 0.176758 0.391166
vt 0.191406 0.394754
vt 0.191406 0.391166
vt 0.206055 0.394754
vt 0.206055 0.391166
vt 0.220703 0.394754
vt 0.220703 0.391166
vt 0.235352 0.394754
vt 0.235352 0.391166
vt 0.250000 0.394754
vt 0.250000 0.391166
vt 0.264648 0.394754
vt 0.264648 0.391166
vt 0.279297 0.394754
vt 0.279297 0.391166
vt 0.293945 0.394754
vt 0.293945 0.391166
vt 0.308594 0.394754
vt 0.308594 0.391166
vt 0.323242 0.394754
vt 0.323242 0.391166
vt 0.337891 0.394754
vt 0.337891 0.391166
vt 0.352539 0.391166
vt 0.367188 0.394754
vt 0.367188 0.391166
vt 0.381836 0.394754
vt 0.381836 0.391166
vt 0.396484 0.394754
vt 0.396484 0.391166
vt 0.411133 0.394754
vt 0.411133 0.391166
vt 0.425781 0.394754
vt 0.425781 0.391166
vt 0.440430 0.394754
vt 0.440430 0.391166
vt 0.455078 0.394754
vt 0.455078 0.391166
vt 0.469727 0.394754
vt 0.469727 0.391166
vt 0.484375 0.391166
vt 0.984375 0.891166
vt 0.955078 0.891166
vt 0.940430 0.891166
vt 0.925781 0.891166
vt 0.911133 0.891166
vt 0.881836 0.891166
vt 0.867188 0.781012
vt 0.867188 0.891166
vt 0.852539 0.891166
vt 0.837891 0.891166
vt 0.823242 0.891166
vt 0.808594 0.891166
vt 0.793945 0.891166
vt 0.779297 0.891166
vt 0.764648 0.891166
vt 0.750000 0.781012
vt 0.750000 0.891166
vt 0.735352 0.891166
vt 0.720703 0.891166
vt 0.706055 0.891166
vt 0.691406 0.891166
vt 0.662109 0.891166
vt 0.647461 0.891166
vt 0.632812 0.891166
vt 0.618164 0.891166
vt 0.603516 0.891166
vt 0.588867 0.891166
vt 0.574219 0.891166
vt 0.559570 0.891166
vt 0.544922 0.891166
vt 0.530273 0.891166
vt 0.515625 0.781012
vt 0.867188 0.984375
vt 0.779297 0.984375
vt 0.750000 0.984375
vt 0.603516 0.984375
vt 0.530273 0.984375
vt 0.154760 0.743151
vt 0.132812 0.745313
vt 0.110865 0.743151
vt 0.089761 0.736749
vt 0.070311 0.726353
vt 0.053263 0.712362
vt 0.039272 0.695314
vt 0.028876 0.675864
vt 0.022474 0.654760
vt 0.020313 0.632812
vt 0.022474 0.610865
vt 0.028876 0.589761
vt 0.039272 0.570311
vt 0.053263 0.553263
vt 0.070311 0.539272
vt 0.110865 0.522474
vt 0.132812 0.520312
vt 0.154760 0.522474
vt 0.175864 0.528876
vt 0.195314 0.539272
vt 0.212362 0.553263
vt 0.226353 0.570311
vt 0.243151 0.610865
vt 0.245313 0.632812
vt 0.243151 0.654760
vt 0.236749 0.675864
vt 0.226353 0.695314
vt 0.212362 0.712362
vt 0.195314 0.726353
vt 0.367188 0.745313
vt 0.389135 0.743151
vt 0.410239 0.736749
vt 0.429689 0.726353
vt 0.446737 0.712362
vt 0.460728 0.695314
vt 0.471124 0.675864
vt 0.477526 0.654760
vt 0.479688 0.632812
vt 0.477526 0.610865
vt 0.471124 0.589761
vt 0.460728 0.570311
vt 0.446737 0.553263
vt 0.429689 0.539272
vt 0.410239 0.528876
vt 0.367188 0.520312
vt 0.345240 0.522474
vt 0.324136 0.528876
vt 0.304686 0.539272
vt 0.287638 0.553263
vt 0.273647 0.570311
vt 0.263251 0.589761
vt 0.254687 0.632812
vt 0.256849 0.654760
vt 0.263251 0.675864
vt 0.273647 0.695314
vt 0.287638 0.712362
vt 0.304686 0.726353
vt 0.324136 0.736749
vt 0.015625 0.394754
vt 0.352539 0.394754
vt 0.484375 0.394754
vt 0.969727 0.891166
vt 0.896484 0.891166
vt 0.676758 0.891166
vt 0.515625 0.891166
s 0
usemtl material_atlas_00002_1
f 2/1/1 98/2/1 97/3/1
f 4/4/2 99/5/2 98/2/2
f 6/6/3 100/7/3 99/5/3
f 8/8/4 101/9/4 100/7/4
f 10/10/5 102/11/5 101/9/5
f 12/12/6 103/13/6 102/11/6
f 14/14/7 104/15/7 103/13/7
f 16/16/8 105/17/8 104/15/8
f 105/17/9 20/18/9 106/19/9
f 20/18/10 107/20/10 106/19/10
f 22/21/11 108/22/11 107/20/11
f 24/23/12 109/24/12 108/22/12
f 26/25/13 110/26/13 109/24/13
f 28/27/14 111/28/14 110/26/14
f 111/28/15 32/29/15 112/30/15
f 32/29/16 113/31/16 112/30/16
f 113/31/17 36/32/17 114/33/17
f 114/33/18 38/34/18 115/35/18
f 38/34/19 116/36/19 115/35/19
f 40/37/20 117/38/20 116/36/20
f 42/39/21 118/40/21 117/38/21
f 44/41/22 119/42/22 118/40/22
f 46/43/23 120/44/23 119/42/23
f 48/45/24 121/46/24 120/44/24
f 50/47/25 122/48/25 121/46/25
f 52/49/26 123/50/26 122/48/26
f 123/50/27 56/51/27 124/52/27
f 56/51/28 125/53/28 124/52/28
f 58/54/29 126/55/29 125/53/29
f 60/56/30 127/57/30 126/55/30
f 30/58/31 80/59/31 32/59/31
f 62/60/32 128/61/32 127/57/32
f 128/61/33 2/62/33 97/63/33
f 29/64/30 302/65/30 27/65/30
f 83/66/34 75/67/34 67/68/34
f 50/69/35 88/70/35 89/69/35
f 4/71/36 67/72/36 6/72/36
f 24/73/37 75/74/37 76/73/37
f 40/75/38 85/76/38 42/76/38
f 60/77/39 93/78/39 94/77/39
f 16/79/40 71/80/40 72/79/40
f 32/59/41 81/81/41 34/81/41
f 50/69/42 90/82/42 52/82/42
f 6/72/43 68/83/43 8/83/43
f 24/73/44 77/84/44 26/84/44
f 42/76/45 86/85/45 44/85/45
f 62/86/46 94/77/46 95/86/46
f 16/79/47 73/87/47 18/87/47
f 36/88/48 81/81/48 82/88/48
f 54/89/49 90/82/49 91/89/49
f 8/83/50 69/90/50 10/90/50
f 26/84/51 78/91/51 28/91/51
f 44/85/52 87/92/52 46/92/52
f 62/86/53 96/93/53 64/93/53
f 20/94/54 73/87/54 74/94/54
f 36/88/55 83/95/55 38/95/55
f 54/89/56 92/96/56 56/96/56
f 10/90/57 70/97/57 12/97/57
f 30/58/58 78/91/58 79/58/58
f 46/92/59 88/70/59 48/70/59
f 4/71/60 66/98/60 65/71/60
f 64/93/61 66/99/61 2/99/61
f 20/94/62 75/74/62 22/74/62
f 40/75/63 83/95/63 84/75/63
f 56/96/64 93/78/64 58/78/64
f 12/97/65 71/80/65 14/80/65
f 159/100/33 97/63/33 160/101/33
f 127/57/32 159/100/32 158/102/32
f 126/55/30 158/102/30 157/103/30
f 125/53/29 157/103/29 156/104/29
f 124/52/28 156/104/28 155/105/28
f 123/50/27 155/105/27 154/106/27
f 145/107/10 163/33/10 173/107/10
f 121/46/25 153/108/25 152/109/25
f 120/44/24 152/109/24 151/110/24
f 119/42/23 151/110/23 150/111/23
f 118/40/22 150/111/22 149/112/22
f 117/38/21 149/112/21 148/113/21
f 116/36/20 148/113/20 147/114/20
f 115/35/19 147/114/19 146/115/19
f 130/116/10 168/5/10 99/5/10
f 144/117/17 114/33/17 145/107/17
f 112/30/16 144/117/16 143/118/16
f 111/28/15 143/118/15 142/119/15
f 110/26/14 142/119/14 141/120/14
f 109/24/13 141/120/13 140/121/13
f 108/22/12 140/121/12 139/122/12
f 107/20/11 139/122/11 138/123/11
f 137/124/2 165/19/2 171/124/2
f 105/17/9 137/124/9 136/125/9
f 104/15/8 136/125/8 135/126/8
f 103/13/7 135/126/7 134/127/7
f 102/11/6 134/127/6 133/128/6
f 101/9/5 133/128/5 132/129/5
f 131/130/4 101/9/4 132/129/4
f 99/5/3 131/130/3 130/116/3
f 129/131/26 167/2/26 169/131/26
f 160/132/1 610/133/1 609/134/1
f 129/131/2 611/135/2 610/133/2
f 130/116/3 612/136/3 611/135/3
f 131/130/4 613/137/4 612/136/4
f 132/129/5 614/138/5 613/137/5
f 133/128/6 615/139/6 614/138/6
f 134/127/7 616/140/7 615/139/7
f 616/140/8 136/125/8 617/141/8
f 136/125/9 618/142/9 617/141/9
f 137/124/10 619/143/10 618/142/10
f 138/123/11 620/144/11 619/143/11
f 139/122/12 621/145/12 620/144/12
f 140/121/13 622/146/13 621/145/13
f 622/146/14 142/119/14 623/147/14
f 142/119/15 624/148/15 623/147/15
f 143/118/16 625/149/16 624/148/16
f 625/149/17 145/107/17 626/150/17
f 145/107/18 627/151/18 626/150/18
f 146/115/19 628/152/19 627/151/19
f 147/114/20 629/153/20 628/152/20
f 148/113/21 630/154/21 629/153/21
f 149/112/22 631/155/22 630/154/22
f 150/111/23 632/156/23 631/155/23
f 151/110/24 633/157/24 632/156/24
f 152/109/25 634/158/25 633/157/25
f 153/108/26 635/159/26 634/158/26
f 154/106/27 636/160/27 635/159/27
f 155/105/28 637/161/28 636/160/28
f 156/104/29 638/162/29 637/161/29
f 157/103/30 639/163/30 638/162/30
f 158/102/32 640/164/32 639/163/32
f 159/100/33 609/165/33 640/164/33
f 97/3/1 129/131/1 160/101/1
f 175/108/26 162/50/26 176/106/26
f 163/33/18 174/115/18 173/107/18
f 165/19/10 172/123/10 171/124/10
f 167/2/2 170/116/2 169/131/2
f 138/123/18 166/20/18 107/20/18
f 153/108/18 161/48/18 175/108/18
f 146/115/26 164/35/26 115/35/26
f 154/106/2 162/50/2 123/50/2
f 130/166/66 169/167/66 170/166/66
f 123/168/67 161/169/67 122/169/67
f 138/170/66 171/171/66 172/170/66
f 115/172/68 163/173/68 114/173/68
f 146/174/66 173/175/66 174/174/66
f 107/176/69 165/177/69 106/177/69
f 153/178/66 176/179/66 154/179/66
f 98/180/70 168/181/70 167/180/70
f 257/182/66 547/183/66 258/183/66
f 177/184/34 544/185/34 545/184/34
f 284/186/66 572/187/66 573/186/66
f 204/188/34 517/189/34 518/188/34
f 288/190/66 546/182/66 257/182/66
f 179/191/34 544/185/34 178/185/34
f 282/192/66 572/187/66 283/187/66
f 206/193/34 517/189/34 205/189/34
f 180/194/34 543/191/34 179/191/34
f 282/192/66 570/195/66 571/192/66
f 207/196/34 516/193/34 206/193/34
f 181/197/34 542/194/34 180/194/34
f 280/198/66 570/195/66 281/195/66
f 207/196/34 514/199/34 515/196/34
f 181/197/34 540/200/34 541/197/34
f 279/201/66 569/198/66 280/198/66
f 183/202/34 540/200/34 182/200/34
f 278/203/66 568/201/66 279/201/66
f 184/204/34 539/202/34 183/202/34
f 277/205/66 567/203/66 278/203/66
f 185/206/34 538/204/34 184/204/34
f 276/207/66 566/205/66 277/205/66
f 186/208/34 537/206/34 185/206/34
f 275/209/66 565/207/66 276/207/66
f 187/210/34 536/208/34 186/208/34
f 275/209/66 563/211/66 564/209/66
f 187/210/34 534/212/34 535/210/34
f 273/213/66 563/211/66 274/211/66
f 189/214/34 534/212/34 188/212/34
f 273/213/66 561/215/66 562/213/66
f 189/214/34 532/216/34 533/214/34
f 272/215/66 560/217/66 561/215/66
f 240/218/33 208/219/33 207/220/33
f 239/221/32 207/220/32 206/222/32
f 238/223/30 206/222/30 205/224/30
f 237/225/29 205/224/29 204/226/29
f 236/227/28 204/226/28 203/228/28
f 235/229/27 203/228/27 202/230/27
f 210/231/71 243/232/71 241/231/71
f 233/233/25 201/234/25 200/235/25
f 232/236/24 200/235/24 199/237/24
f 231/238/23 199/237/23 198/239/23
f 230/240/22 198/239/22 197/241/22
f 229/242/21 197/241/21 196/243/21
f 228/244/20 196/243/20 195/245/20
f 227/246/19 195/245/19 194/247/19
f 177/248/26 241/231/26 242/248/26
f 192/249/17 226/250/17 193/251/17
f 224/252/16 192/249/16 191/253/16
f 223/254/15 191/253/15 190/255/15
f 222/256/14 190/255/14 189/257/14
f 221/258/13 189/257/13 188/259/13
f 220/260/12 188/259/12 187/261/12
f 219/262/11 187/261/11 186/263/11
f 218/264/72 247/262/72 245/264/72
f 184/265/9 218/264/9 185/266/9
f 216/267/8 184/265/8 183/268/8
f 215/269/7 183/268/7 182/270/7
f 214/271/6 182/270/6 181/272/6
f 213/273/5 181/272/5 180/274/5
f 212/275/4 180/274/4 179/276/4
f 211/232/3 179/276/3 178/277/3
f 227/246/73 249/250/73 226/250/73
f 209/278/1 177/248/1 208/279/1
f 253/280/26 256/230/26 254/234/26
f 249/250/18 252/247/18 250/251/18
f 245/264/10 248/263/10 246/266/10
f 241/231/2 244/277/2 242/248/2
f 185/266/2 245/264/2 246/266/2
f 178/277/10 243/232/10 211/232/10
f 201/281/66 256/282/66 202/282/66
f 193/251/10 249/250/10 250/251/10
f 186/263/18 247/262/18 219/262/18
f 194/283/66 250/284/66 252/283/66
f 201/234/18 253/280/18 254/234/18
f 194/247/26 251/246/26 227/246/26
f 185/206/66 248/208/66 186/208/66
f 202/230/2 255/229/2 235/229/2
f 177/184/66 244/185/66 178/185/66
f 235/229/74 253/280/74 234/280/74
f 1/285/75 446/286/75 385/285/75
f 257/182/75 389/183/75 387/182/75
f 283/187/75 441/186/75 439/187/75
f 47/287/75 428/288/75 430/287/75
f 288/190/75 387/182/75 448/190/75
f 282/192/75 439/187/75 437/192/75
f 29/64/75 410/65/75 412/64/75
f 11/289/75 392/290/75 394/289/75
f 281/195/75 437/192/75 435/195/75
f 63/286/75 444/291/75 446/286/75
f 280/198/75 435/195/75 433/198/75
f 45/288/75 426/292/75 428/288/75
f 279/201/75 433/198/75 431/201/75
f 27/65/75 408/293/75 410/65/75
f 9/290/75 390/294/75 392/290/75
f 278/203/75 431/201/75 429/203/75
f 61/291/75 442/295/75 444/291/75
f 277/205/75 429/203/75 427/205/75
f 43/292/75 424/296/75 426/292/75
f 276/207/75 427/205/75 425/207/75
f 25/293/75 406/297/75 408/293/75
f 7/294/75 388/298/75 390/294/75
f 275/209/75 425/207/75 423/209/75
f 59/295/75 440/299/75 442/295/75
f 274/211/75 423/209/75 421/211/75
f 41/296/75 422/300/75 424/296/75
f 273/213/75 421/211/75 419/213/75
f 23/297/75 404/301/75 406/297/75
f 5/298/75 386/302/75 388/298/75
f 272/215/75 419/213/75 417/215/75
f 57/299/75 438/303/75 440/299/75
f 271/217/75 417/215/75 415/217/75
f 304/304/66 312/305/66 320/306/66
f 3/302/17 289/307/17 1/307/17
f 45/288/7 312/287/7 311/288/7
f 63/286/16 289/285/16 320/286/16
f 21/301/26 298/308/26 19/308/26
f 37/309/3 308/300/3 307/309/3
f 57/299/12 316/303/12 55/303/12
f 13/310/22 294/289/22 11/289/22
f 31/311/32 303/64/32 29/64/32
f 49/312/8 312/287/8 47/287/8
f 5/298/18 290/302/18 3/302/18
f 21/301/27 300/297/27 299/301/27
f 41/296/4 308/300/4 39/300/4
f 59/295/13 317/299/13 57/299/13
f 15/313/23 295/310/23 13/310/23
f 33/314/33 304/311/33 31/311/33
f 51/315/9 313/312/9 49/312/9
f 7/294/19 291/298/19 5/298/19
f 25/293/28 300/297/28 23/297/28
f 43/292/5 309/296/5 41/296/5
f 59/295/14 319/291/14 318/295/14
f 17/316/24 296/313/24 15/313/24
f 33/314/1 306/317/1 305/314/1
f 53/318/10 314/315/10 51/315/10
f 9/290/20 292/294/20 7/294/20
f 27/65/29 301/293/29 25/293/29
f 45/288/6 310/292/6 43/292/6
f 63/286/15 319/291/15 61/291/15
f 19/308/25 297/316/25 17/316/25
f 37/309/2 306/317/2 35/317/2
f 55/303/11 315/318/11 53/318/11
f 11/289/21 293/290/21 9/290/21
f 343/285/75 508/286/75 509/285/75
f 373/64/75 512/65/75 466/64/75
f 358/311/75 466/64/75 491/311/75
f 348/187/75 461/186/75 464/187/75
f 332/319/75 489/217/75 465/319/75
f 369/314/75 491/311/75 463/314/75
f 356/317/75 463/314/75 490/317/75
f 367/309/75 490/317/75 459/309/75
f 351/186/75 458/320/75 461/186/75
f 371/217/75 462/215/75 489/217/75
f 370/286/75 503/291/75 508/286/75
f 328/300/75 459/309/75 460/300/75
f 380/296/75 460/300/75 507/296/75
f 346/320/75 455/321/75 458/320/75
f 330/215/75 487/213/75 462/215/75
f 344/291/75 483/295/75 503/291/75
f 361/292/75 507/296/75 457/292/75
f 352/288/75 457/292/75 488/288/75
f 359/287/75 488/288/75 453/287/75
f 372/321/75 451/322/75 455/321/75
f 382/213/75 486/211/75 487/213/75
f 321/303/75 450/318/75 485/303/75
f 324/312/75 453/287/75 454/312/75
f 376/315/75 454/312/75 506/315/75
f 347/322/75 452/323/75 451/322/75
f 365/211/75 484/209/75 486/211/75
f 338/324/75 504/325/75 474/324/75
f 353/318/75 506/315/75 450/318/75
f 374/299/75 485/303/75 505/299/75
f 354/209/75 482/207/75 484/209/75
f 331/325/75 502/326/75 504/325/75
f 349/295/75 505/299/75 483/295/75
f 284/186/75 443/320/75 441/186/75
f 13/310/75 394/289/75 396/310/75
f 258/183/75 391/327/75 389/183/75
f 31/311/75 412/64/75 414/311/75
f 285/320/75 445/321/75 443/320/75
f 259/327/75 393/328/75 391/327/75
f 49/312/75 430/287/75 432/312/75
f 286/321/75 447/322/75 445/321/75
f 260/328/75 395/324/75 393/328/75
f 287/322/75 448/323/75 447/322/75
f 15/313/75 396/310/75 398/313/75
f 261/324/75 397/325/75 395/324/75
f 33/314/75 414/311/75 416/314/75
f 262/325/75 399/326/75 397/325/75
f 51/315/75 432/312/75 434/315/75
f 263/326/75 401/329/75 399/326/75
f 17/316/75 398/313/75 400/316/75
f 264/329/75 403/330/75 401/329/75
f 35/317/75 416/314/75 418/317/75
f 265/330/75 405/331/75 403/330/75
f 53/318/75 434/315/75 436/318/75
f 266/331/75 407/332/75 405/331/75
f 19/308/75 400/316/75 402/308/75
f 267/332/75 409/333/75 407/332/75
f 37/309/75 418/317/75 420/309/75
f 268/333/75 411/334/75 409/333/75
f 3/302/75 385/307/75 386/302/75
f 55/303/75 436/318/75 438/303/75
f 269/334/75 413/319/75 411/334/75
f 21/301/75 402/308/75 404/301/75
f 270/319/75 415/217/75 413/319/75
f 39/300/75 420/309/75 422/300/75
f 387/182/75 339/183/75 342/182/75
f 439/187/75 351/186/75 348/187/75
f 398/313/75 364/310/75 383/313/75
f 424/296/75 328/300/75 380/296/75
f 448/190/75 342/182/75 345/190/75
f 437/192/75 348/187/75 322/192/75
f 435/195/75 322/192/75 355/195/75
f 396/310/75 333/289/75 364/310/75
f 422/300/75 367/309/75 328/300/75
f 385/285/75 370/286/75 343/285/75
f 433/198/75 355/195/75 350/198/75
f 431/201/75 350/198/75 357/201/75
f 394/289/75 366/290/75 333/289/75
f 420/309/75 356/317/75 367/309/75
f 446/286/75 344/291/75 370/286/75
f 429/203/75 357/201/75 378/203/75
f 427/205/75 378/203/75 326/205/75
f 392/290/75 337/294/75 366/290/75
f 418/317/75 369/314/75 356/317/75
f 444/291/75 349/295/75 344/291/75
f 425/207/75 326/205/75 363/207/75
f 423/209/75 363/207/75 354/209/75
f 390/294/75 368/298/75 337/294/75
f 416/314/75 358/311/75 369/314/75
f 442/295/75 374/299/75 349/295/75
f 421/211/75 354/209/75 365/211/75
f 419/213/75 365/211/75 382/213/75
f 388/298/75 341/302/75 368/298/75
f 414/311/75 373/64/75 358/311/75
f 440/299/75 321/303/75 374/299/75
f 417/215/75 382/213/75 330/215/75
f 415/217/75 330/215/75 371/217/75
f 441/186/75 346/320/75 351/186/75
f 389/183/75 340/327/75 339/183/75
f 426/292/75 380/296/75 361/292/75
f 400/316/75 383/313/75 381/316/75
f 443/320/75 372/321/75 346/320/75
f 391/327/75 335/328/75 340/327/75
f 445/321/75 347/322/75 372/321/75
f 393/328/75 338/324/75 335/328/75
f 428/288/75 361/292/75 352/288/75
f 402/308/75 381/316/75 362/308/75
f 447/322/75 345/323/75 347/322/75
f 395/324/75 331/325/75 338/324/75
f 397/325/75 329/326/75 331/325/75
f 430/287/75 352/288/75 359/287/75
f 404/301/75 362/308/75 379/301/75
f 399/326/75 336/329/75 329/326/75
f 401/329/75 327/330/75 336/329/75
f 432/312/75 359/287/75 324/312/75
f 406/297/75 379/301/75 377/297/75
f 403/330/75 325/331/75 327/330/75
f 405/331/75 334/332/75 325/331/75
f 434/315/75 324/312/75 376/315/75
f 408/293/75 377/297/75 360/293/75
f 407/332/75 323/333/75 334/332/75
f 409/333/75 375/334/75 323/333/75
f 436/318/75 376/315/75 353/318/75
f 410/65/75 360/293/75 384/65/75
f 411/334/75 332/319/75 375/334/75
f 413/319/75 371/217/75 332/319/75
f 438/303/75 353/318/75 321/303/75
f 412/64/75 384/65/75 373/64/75
f 386/302/75 343/307/75 341/302/75
f 451/322/76 509/285/76 508/286/76
f 503/291/77 451/322/77 508/286/77
f 458/320/78 503/291/78 483/295/78
f 505/299/79 458/320/79 483/295/79
f 485/303/80 461/186/80 505/299/80
f 449/192/81 485/303/81 450/318/81
f 469/195/82 450/318/82 506/315/82
f 454/312/83 469/195/83 506/315/83
f 475/201/84 454/312/84 453/287/84
f 488/288/85 475/201/85 453/287/85
f 456/205/86 488/288/86 457/292/86
f 482/207/87 457/292/87 507/296/87
f 484/209/88 507/296/88 460/300/88
f 459/309/89 484/209/89 460/300/89
f 490/317/90 486/211/90 459/309/90
f 463/314/91 487/213/91 490/317/91
f 489/217/92 463/314/92 491/311/92
f 465/319/93 491/311/93 466/64/93
f 492/334/94 466/64/94 512/65/94
f 494/333/95 512/65/95 493/293/95
f 468/297/96 494/333/96 493/293/96
f 498/331/97 468/297/97 510/301/97
f 500/330/98 510/301/98 495/308/98
f 471/316/99 500/330/99 495/308/99
f 502/326/100 471/316/100 511/313/100
f 497/310/101 502/326/101 511/313/101
f 496/289/102 504/325/102 497/310/102
f 499/290/103 474/324/103 496/289/103
f 477/294/104 473/328/104 499/290/104
f 501/298/105 476/327/105 477/294/105
f 479/182/106 501/298/106 480/302/106
f 509/307/107 479/182/107 480/302/107
f 375/334/75 465/319/75 492/334/75
f 322/192/75 464/187/75 449/192/75
f 384/65/75 493/293/75 512/65/75
f 360/293/75 468/297/75 493/293/75
f 377/297/75 510/301/75 468/297/75
f 323/333/75 492/334/75 494/333/75
f 355/195/75 449/192/75 469/195/75
f 379/301/75 495/308/75 510/301/75
f 362/308/75 471/316/75 495/308/75
f 381/316/75 511/313/75 471/316/75
f 334/332/75 494/333/75 467/332/75
f 350/198/75 469/195/75 472/198/75
f 383/313/75 497/310/75 511/313/75
f 364/310/75 496/289/75 497/310/75
f 335/328/75 474/324/75 473/328/75
f 333/289/75 499/290/75 496/289/75
f 325/331/75 467/332/75 498/331/75
f 357/201/75 472/198/75 475/201/75
f 366/290/75 477/294/75 499/290/75
f 337/294/75 501/298/75 477/294/75
f 327/330/75 498/331/75 500/330/75
f 378/203/75 475/201/75 478/203/75
f 368/298/75 480/302/75 501/298/75
f 341/302/75 509/307/75 480/302/75
f 336/329/75 500/330/75 470/329/75
f 326/205/75 478/203/75 456/205/75
f 340/327/75 473/328/75 476/327/75
f 339/183/75 476/327/75 481/183/75
f 342/182/75 481/183/75 479/182/75
f 345/190/75 479/182/75 452/190/75
f 329/326/75 470/329/75 502/326/75
f 363/207/75 456/205/75 482/207/75
f 515/196/33 513/323/33 576/322/33
f 516/193/32 576/322/32 575/321/32
f 517/189/30 575/321/30 574/320/30
f 518/188/29 574/320/29 573/186/29
f 519/335/28 573/186/28 572/187/28
f 520/282/27 572/187/27 571/192/27
f 570/195/26 520/282/26 571/192/26
f 522/336/25 570/195/25 569/198/25
f 523/337/24 569/198/24 568/201/24
f 567/203/23 523/337/23 568/201/23
f 525/338/22 567/203/22 566/205/22
f 526/339/21 566/205/21 565/207/21
f 527/340/20 565/207/20 564/209/20
f 528/283/19 564/209/19 563/211/19
f 529/284/18 563/211/18 562/213/18
f 530/341/17 562/213/17 561/215/17
f 531/342/16 561/215/16 560/217/16
f 532/216/15 560/217/15 559/319/15
f 533/214/14 559/319/14 558/334/14
f 534/212/13 558/334/13 557/333/13
f 535/210/12 557/333/12 556/332/12
f 536/208/11 556/332/11 555/331/11
f 537/206/10 555/331/10 554/330/10
f 538/204/9 554/330/9 553/329/9
f 539/202/8 553/329/8 552/326/8
f 540/200/7 552/326/7 551/325/7
f 541/197/6 551/325/6 550/324/6
f 542/194/5 550/324/5 549/328/5
f 543/191/4 549/328/4 548/327/4
f 544/185/3 548/327/3 547/183/3
f 545/184/2 547/183/2 546/182/2
f 514/343/1 546/182/1 513/190/1
f 204/188/34 519/335/34 203/335/34
f 284/186/66 574/320/66 285/320/66
f 177/184/34 514/343/34 208/343/34
f 258/183/66 548/327/66 259/327/66
f 203/335/34 520/282/34 202/282/34
f 286/321/66 574/320/66 575/321/66
f 259/327/66 549/328/66 260/328/66
f 202/282/34 521/281/34 201/281/34
f 287/322/66 575/321/66 576/322/66
f 260/328/66 550/324/66 261/324/66
f 201/281/34 522/336/34 200/336/34
f 287/322/66 513/323/66 288/323/66
f 261/324/66 551/325/66 262/325/66
f 200/336/34 523/337/34 199/337/34
f 263/326/66 551/325/66 552/326/66
f 198/344/34 523/337/34 524/344/34
f 263/326/66 553/329/66 264/329/66
f 198/344/34 525/338/34 197/338/34
f 264/329/66 554/330/66 265/330/66
f 197/338/34 526/339/34 196/339/34
f 266/331/66 554/330/66 555/331/66
f 196/339/34 527/340/34 195/340/34
f 266/331/66 556/332/66 267/332/66
f 195/340/34 528/283/34 194/283/34
f 267/332/66 557/333/66 268/333/66
f 194/283/34 529/284/34 193/284/34
f 269/334/66 557/333/66 558/334/66
f 193/284/34 530/341/34 192/341/34
f 269/334/66 559/319/66 270/319/66
f 192/341/34 531/342/34 191/342/34
f 270/319/66 560/217/66 271/217/66
f 190/216/34 531/342/34 532/216/34
f 488/288/22 580/292/22 457/292/22
f 503/291/30 589/295/30 483/295/30
f 477/294/20 598/290/20 499/290/20
f 501/298/19 587/294/19 477/294/19
f 507/296/20 582/300/20 460/300/20
f 508/286/32 600/291/32 503/291/32
f 459/309/18 592/317/18 490/317/18
f 480/302/18 599/298/18 501/298/18
f 509/307/17 588/302/17 480/302/17
f 460/300/19 581/309/19 459/309/19
f 463/314/16 593/311/16 491/311/16
f 490/317/17 583/314/17 463/314/17
f 466/64/14 608/65/14 512/65/14
f 491/311/15 584/64/15 466/64/15
f 509/285/33 604/286/33 508/286/33
f 493/293/29 608/65/29 512/65/29
f 483/295/29 601/299/29 505/299/29
f 510/301/27 585/297/27 468/297/27
f 468/297/28 594/293/28 493/293/28
f 495/308/26 606/301/26 510/301/26
f 505/299/28 590/303/28 485/303/28
f 450/318/26 602/315/26 506/315/26
f 471/316/24 607/313/24 586/316/24
f 471/316/25 595/308/25 495/308/25
f 511/313/23 597/310/23 607/313/23
f 454/312/25 602/315/25 579/312/25
f 485/303/27 577/318/27 450/318/27
f 453/287/23 591/288/23 488/288/23
f 496/289/22 597/310/22 497/310/22
f 499/290/21 596/289/21 496/289/21
f 454/312/24 578/287/24 453/287/24
f 457/292/21 603/296/21 507/296/21
f 640/345/33 672/346/33 671/347/33
f 639/348/32 671/347/32 670/349/32
f 638/350/30 670/349/30 669/351/30
f 637/352/29 669/351/29 668/353/29
f 636/354/28 668/353/28 667/355/28
f 635/356/27 667/355/27 666/357/27
f 634/358/26 666/357/26 665/359/26
f 633/360/25 665/359/25 664/361/25
f 632/362/24 664/361/24 663/363/24
f 631/364/23 663/363/23 662/365/23
f 630/366/22 662/365/22 661/367/22
f 629/368/21 661/367/21 660/369/21
f 628/370/20 660/369/20 659/371/20
f 627/372/19 659/371/19 658/373/19
f 626/374/18 658/373/18 657/375/18
f 625/376/17 657/375/17 656/377/17
f 624/378/16 656/377/16 655/379/16
f 623/380/15 655/379/15 654/381/15
f 622/382/14 654/381/14 653/383/14
f 621/384/13 653/383/13 652/385/13
f 620/386/12 652/385/12 651/387/12
f 619/388/11 651/387/11 650/389/11
f 649/390/10 619/388/10 650/389/10
f 617/391/9 649/390/9 648/392/9
f 616/393/8 648/392/8 647/394/8
f 615/395/7 647/394/7 646/396/7
f 614/397/6 646/396/6 645/398/6
f 613/399/5 645/398/5 644/400/5
f 612/401/4 644/400/4 643/402/4
f 611/403/3 643/402/3 642/404/3
f 610/405/2 642/404/2 641/406/2
f 672/407/1 610/405/1 641/406/1
f 672/408/1 210/231/1 209/278/1
f 210/231/2 642/409/2 211/232/2
f 642/409/3 212/275/3 211/232/3
f 643/410/4 213/273/4 212/275/4
f 644/411/5 214/271/5 213/273/5
f 645/412/6 215/269/6 214/271/6
f 215/269/7 647/413/7 216/267/7
f 647/413/8 217/414/8 216/267/8
f 648/415/9 218/264/9 217/414/9
f 649/416/10 219/262/10 218/264/10
f 650/417/11 220/260/11 219/262/11
f 651/418/12 221/258/12 220/260/12
f 652/419/13 222/256/13 221/258/13
f 653/420/14 223/254/14 222/256/14
f 654/421/15 224/252/15 223/254/15
f 655/422/16 225/423/16 224/252/16
f 656/424/17 226/250/17 225/423/17
f 657/425/18 227/246/18 226/250/18
f 658/426/19 228/244/19 227/246/19
f 659/427/20 229/242/20 228/244/20
f 660/428/21 230/240/21 229/242/21
f 230/240/22 662/429/22 231/238/22
f 662/429/23 232/236/23 231/238/23
f 663/430/24 233/233/24 232/236/24
f 664/431/25 234/280/25 233/233/25
f 665/432/26 235/229/26 234/280/26
f 666/433/27 236/227/27 235/229/27
f 667/434/28 237/225/28 236/227/28
f 668/435/29 238/223/29 237/225/29
f 669/436/30 239/221/30 238/223/30
f 670/437/32 240/218/32 239/221/32
f 671/438/33 209/439/33 240/218/33
f 2/1/1 4/4/1 98/2/1
f 4/4/2 6/6/2 99/5/2
f 6/6/3 8/8/3 100/7/3
f 8/8/4 10/10/4 101/9/4
f 10/10/5 12/12/5 102/11/5
f 12/12/6 14/14/6 103/13/6
f 14/14/7 16/16/7 104/15/7
f 16/16/8 18/440/8 105/17/8
f 105/17/9 18/440/9 20/18/9
f 20/18/10 22/21/10 107/20/10
f 22/21/11 24/23/11 108/22/11
f 24/23/12 26/25/12 109/24/12
f 26/25/13 28/27/13 110/26/13
f 28/27/14 30/441/14 111/28/14
f 111/28/15 30/441/15 32/29/15
f 32/29/16 34/442/16 113/31/16
f 113/31/17 34/442/17 36/32/17
f 114/33/18 36/32/18 38/34/18
f 38/34/19 40/37/19 116/36/19
f 40/37/20 42/39/20 117/38/20
f 42/39/21 44/41/21 118/40/21
f 44/41/22 46/43/22 119/42/22
f 46/43/23 48/45/23 120/44/23
f 48/45/24 50/47/24 121/46/24
f 50/47/25 52/49/25 122/48/25
f 52/49/26 54/443/26 123/50/26
f 123/50/27 54/443/27 56/51/27
f 56/51/28 58/54/28 125/53/28
f 58/54/29 60/56/29 126/55/29
f 60/56/30 62/60/30 127/57/30
f 30/58/31 79/58/31 80/59/31
f 62/60/32 64/444/32 128/61/32
f 128/61/33 64/444/33 2/62/33
f 29/64/30 303/64/30 302/65/30
f 67/68/108 65/445/108 66/446/108
f 66/446/109 96/447/109 95/448/109
f 95/448/108 94/449/108 93/450/108
f 93/450/110 92/451/110 91/452/110
f 91/452/111 90/453/111 89/454/111
f 89/454/110 88/455/110 87/456/110
f 87/456/108 86/457/108 85/458/108
f 85/458/112 84/459/112 83/66/112
f 83/66/108 82/460/108 81/461/108
f 81/461/34 80/462/34 79/463/34
f 79/463/112 78/464/112 77/465/112
f 77/465/113 76/466/113 75/67/113
f 75/67/114 74/467/114 73/468/114
f 73/468/113 72/469/113 71/470/113
f 71/470/112 70/471/112 69/472/112
f 69/472/108 68/473/108 67/68/108
f 67/68/115 66/446/115 95/448/115
f 95/448/34 93/450/34 91/452/34
f 91/452/34 89/454/34 87/456/34
f 87/456/34 85/458/34 83/66/34
f 83/66/116 81/461/116 79/463/116
f 79/463/34 77/465/34 75/67/34
f 75/67/34 73/468/34 71/470/34
f 71/470/34 69/472/34 67/68/34
f 67/68/34 95/448/34 91/452/34
f 91/452/34 87/456/34 83/66/34
f 83/66/34 79/463/34 75/67/34
f 75/67/34 71/470/34 67/68/34
f 67/68/34 91/452/34 83/66/34
f 50/69/35 48/70/35 88/70/35
f 4/71/36 65/71/36 67/72/36
f 24/73/37 22/74/37 75/74/37
f 40/75/38 84/75/38 85/76/38
f 60/77/39 58/78/39 93/78/39
f 16/79/40 14/80/40 71/80/40
f 32/59/41 80/59/41 81/81/41
f 50/69/42 89/69/42 90/82/42
f 6/72/43 67/72/43 68/83/43
f 24/73/44 76/73/44 77/84/44
f 42/76/45 85/76/45 86/85/45
f 62/86/46 60/77/46 94/77/46
f 16/79/47 72/79/47 73/87/47
f 36/88/48 34/81/48 81/81/48
f 54/89/49 52/82/49 90/82/49
f 8/83/50 68/83/50 69/90/50
f 26/84/51 77/84/51 78/91/51
f 44/85/52 86/85/52 87/92/52
f 62/86/53 95/86/53 96/93/53
f 20/94/54 18/87/54 73/87/54
f 36/88/55 82/88/55 83/95/55
f 54/89/56 91/89/56 92/96/56
f 10/90/57 69/90/57 70/97/57
f 30/58/58 28/91/58 78/91/58
f 46/92/117 87/92/117 88/70/117
f 4/71/60 2/98/60 66/98/60
f 64/93/61 96/93/61 66/99/61
f 20/94/62 74/94/62 75/74/62
f 40/75/63 38/95/63 83/95/63
f 56/96/64 92/96/64 93/78/64
f 12/97/65 70/97/65 71/80/65
f 159/100/33 128/61/33 97/63/33
f 127/57/32 128/61/32 159/100/32
f 126/55/30 127/57/30 158/102/30
f 125/53/29 126/55/29 157/103/29
f 124/52/28 125/53/28 156/104/28
f 123/50/27 124/52/27 155/105/27
f 145/107/10 114/33/10 163/33/10
f 121/46/25 122/48/25 153/108/25
f 120/44/24 121/46/24 152/109/24
f 119/42/23 120/44/23 151/110/23
f 118/40/22 119/42/22 150/111/22
f 117/38/21 118/40/21 149/112/21
f 116/36/20 117/38/20 148/113/20
f 115/35/19 116/36/19 147/114/19
f 130/116/10 170/116/10 168/5/10
f 144/117/17 113/31/17 114/33/17
f 112/30/16 113/31/16 144/117/16
f 111/28/15 112/30/15 143/118/15
f 110/26/14 111/28/14 142/119/14
f 109/24/13 110/26/13 141/120/13
f 108/22/12 109/24/12 140/121/12
f 107/20/11 108/22/11 139/122/11
f 137/124/2 106/19/2 165/19/2
f 105/17/9 106/19/9 137/124/9
f 104/15/8 105/17/8 136/125/8
f 103/13/7 104/15/7 135/126/7
f 102/11/6 103/13/6 134/127/6
f 101/9/5 102/11/5 133/128/5
f 131/130/4 100/7/4 101/9/4
f 99/5/3 100/7/3 131/130/3
f 129/131/26 98/2/26 167/2/26
f 160/132/1 129/131/1 610/133/1
f 129/131/2 130/116/2 611/135/2
f 130/116/3 131/130/3 612/136/3
f 131/130/4 132/129/4 613/137/4
f 132/129/5 133/128/5 614/138/5
f 133/128/6 134/127/6 615/139/6
f 134/127/7 135/126/7 616/140/7
f 616/140/8 135/126/8 136/125/8
f 136/125/9 137/124/9 618/142/9
f 137/124/10 138/123/10 619/143/10
f 138/123/11 139/122/11 620/144/11
f 139/122/12 140/121/12 621/145/12
f 140/121/13 141/120/13 622/146/13
f 622/146/14 141/120/14 142/119/14
f 142/119/15 143/118/15 624/148/15
f 143/118/16 144/117/16 625/149/16
f 625/149/17 144/117/17 145/107/17
f 145/107/18 146/115/18 627/151/18
f 146/115/19 147/114/19 628/152/19
f 147/114/20 148/113/20 629/153/20
f 148/113/21 149/112/21 630/154/21
f 149/112/22 150/111/22 631/155/22
f 150/111/23 151/110/23 632/156/23
f 151/110/24 152/109/24 633/157/24
f 152/109/25 153/108/25 634/158/25
f 153/108/26 154/106/26 635/159/26
f 154/106/27 155/105/27 636/160/27
f 155/105/28 156/104/28 637/161/28
f 156/104/29 157/103/29 638/162/29
f 157/103/30 158/102/30 639/163/30
f 158/102/32 159/100/32 640/164/32
f 159/100/33 160/101/33 609/165/33
f 97/3/1 98/2/1 129/131/1
f 175/108/26 161/48/26 162/50/26
f 163/33/18 164/35/18 174/115/18
f 165/19/10 166/20/10 172/123/10
f 167/2/2 168/5/2 170/116/2
f 138/123/18 172/123/18 166/20/18
f 153/108/18 122/48/18 161/48/18
f 146/115/26 174/115/26 164/35/26
f 154/106/2 176/106/2 162/50/2
f 130/166/66 129/167/66 169/167/66
f 123/168/67 162/168/67 161/169/67
f 138/170/66 137/171/66 171/171/66
f 115/172/68 164/172/68 163/173/68
f 146/174/66 145/175/66 173/175/66
f 107/176/69 166/176/69 165/177/69
f 153/178/66 175/178/66 176/179/66
f 98/180/70 99/181/70 168/181/70
f 257/182/66 546/182/66 547/183/66
f 177/184/34 178/185/34 544/185/34
f 284/186/66 283/187/66 572/187/66
f 204/188/34 205/189/34 517/189/34
f 288/190/66 513/190/66 546/182/66
f 179/191/34 543/191/34 544/185/34
f 282/192/66 571/192/66 572/187/66
f 206/193/34 516/193/34 517/189/34
f 180/194/34 542/194/34 543/191/34
f 282/192/66 281/195/66 570/195/66
f 207/196/34 515/196/34 516/193/34
f 181/197/34 541/197/34 542/194/34
f 280/198/66 569/198/66 570/195/66
f 207/196/34 208/199/34 514/199/34
f 181/197/34 182/200/34 540/200/34
f 279/201/66 568/201/66 569/198/66
f 183/202/34 539/202/34 540/200/34
f 278/203/66 567/203/66 568/201/66
f 184/204/34 538/204/34 539/202/34
f 277/205/66 566/205/66 567/203/66
f 185/206/34 537/206/34 538/204/34
f 276/207/66 565/207/66 566/205/66
f 186/208/34 536/208/34 537/206/34
f 275/209/66 564/209/66 565/207/66
f 187/210/34 535/210/34 536/208/34
f 275/209/66 274/211/66 563/211/66
f 187/210/34 188/212/34 534/212/34
f 273/213/66 562/213/66 563/211/66
f 189/214/34 533/214/34 534/212/34
f 273/213/66 272/215/66 561/215/66
f 189/214/34 190/216/34 532/216/34
f 272/215/66 271/217/66 560/217/66
f 240/218/33 209/439/33 208/219/33
f 239/221/32 240/218/32 207/220/32
f 238/223/30 239/221/30 206/222/30
f 237/225/29 238/223/29 205/224/29
f 236/227/28 237/225/28 204/226/28
f 235/229/27 236/227/27 203/228/27
f 210/231/71 211/232/71 243/232/71
f 233/233/25 234/280/25 201/234/25
f 232/236/24 233/233/24 200/235/24
f 231/238/23 232/236/23 199/237/23
f 230/240/22 231/238/22 198/239/22
f 229/242/21 230/240/21 197/241/21
f 228/244/20 229/242/20 196/243/20
f 227/246/19 228/244/19 195/245/19
f 177/248/26 210/231/26 241/231/26
f 192/249/17 225/423/17 226/250/17
f 224/252/16 225/423/16 192/249/16
f 223/254/15 224/252/15 191/253/15
f 222/256/14 223/254/14 190/255/14
f 221/258/13 222/256/13 189/257/13
f 220/260/12 221/258/12 188/259/12
f 219/262/11 220/260/11 187/261/11
f 218/264/72 219/262/72 247/262/72
f 184/265/9 217/414/9 218/264/9
f 216/267/8 217/414/8 184/265/8
f 215/269/7 216/267/7 183/268/7
f 214/271/6 215/269/6 182/270/6
f 213/273/5 214/271/5 181/272/5
f 212/275/4 213/273/4 180/274/4
f 211/232/3 212/275/3 179/276/3
f 227/246/73 251/246/73 249/250/73
f 209/278/1 210/231/1 177/248/1
f 253/280/26 255/229/26 256/230/26
f 249/250/18 251/246/18 252/247/18
f 245/264/10 247/262/10 248/263/10
f 241/231/2 243/232/2 244/277/2
f 185/266/2 218/264/2 245/264/2
f 178/277/10 244/277/10 243/232/10
f 201/281/66 254/281/66 256/282/66
f 193/251/10 226/250/10 249/250/10
f 186/263/18 248/263/18 247/262/18
f 194/283/66 193/284/66 250/284/66
f 201/234/18 234/280/18 253/280/18
f 194/247/26 252/247/26 251/246/26
f 185/206/66 246/206/66 248/208/66
f 202/230/2 256/230/2 255/229/2
f 177/184/66 242/184/66 244/185/66
f 235/229/74 255/229/74 253/280/74
f 1/285/75 63/286/75 446/286/75
f 257/182/75 258/183/75 389/183/75
f 283/187/75 284/186/75 441/186/75
f 47/287/75 45/288/75 428/288/75
f 288/190/75 257/182/75 387/182/75
f 282/192/75 283/187/75 439/187/75
f 29/64/75 27/65/75 410/65/75
f 11/289/75 9/290/75 392/290/75
f 281/195/75 282/192/75 437/192/75
f 63/286/75 61/291/75 444/291/75
f 280/198/75 281/195/75 435/195/75
f 45/288/75 43/292/75 426/292/75
f 279/201/75 280/198/75 433/198/75
f 27/65/75 25/293/75 408/293/75
f 9/290/75 7/294/75 390/294/75
f 278/203/75 279/201/75 431/201/75
f 61/291/75 59/295/75 442/295/75
f 277/205/75 278/203/75 429/203/75
f 43/292/75 41/296/75 424/296/75
f 276/207/75 277/205/75 427/205/75
f 25/293/75 23/297/75 406/297/75
f 7/294/75 5/298/75 388/298/75
f 275/209/75 276/207/75 425/207/75
f 59/295/75 57/299/75 440/299/75
f 274/211/75 275/209/75 423/209/75
f 41/296/75 39/300/75 422/300/75
f 273/213/75 274/211/75 421/211/75
f 23/297/75 21/301/75 404/301/75
f 5/298/75 3/302/75 386/302/75
f 272/215/75 273/213/75 419/213/75
f 57/299/75 55/303/75 438/303/75
f 271/217/75 272/215/75 417/215/75
f 320/306/118 289/474/118 290/475/118
f 290/475/66 291/476/66 292/477/66
f 292/477/66 293/478/66 294/479/66
f 294/479/66 295/480/66 296/481/66
f 296/481/66 297/482/66 298/483/66
f 298/483/66 299/484/66 300/485/66
f 300/485/66 301/486/66 302/487/66
f 302/487/66 303/488/66 304/304/66
f 304/304/66 305/489/66 306/490/66
f 306/490/66 307/491/66 308/492/66
f 308/492/119 309/493/119 310/494/119
f 310/494/66 311/495/66 312/305/66
f 312/305/66 313/496/66 314/497/66
f 314/497/66 315/498/66 316/499/66
f 316/499/66 317/500/66 318/501/66
f 318/501/66 319/502/66 320/306/66
f 320/306/66 290/475/66 292/477/66
f 292/477/66 294/479/66 296/481/66
f 296/481/66 298/483/66 300/485/66
f 300/485/66 302/487/66 304/304/66
f 304/304/66 306/490/66 308/492/66
f 308/492/66 310/494/66 312/305/66
f 312/305/66 314/497/66 316/499/66
f 316/499/66 318/501/66 320/306/66
f 320/306/66 292/477/66 296/481/66
f 296/481/66 300/485/66 304/304/66
f 304/304/66 308/492/66 312/305/66
f 312/305/66 316/499/66 320/306/66
f 320/306/66 296/481/66 304/304/66
f 3/302/17 290/302/17 289/307/17
f 45/288/7 47/287/7 312/287/7
f 63/286/16 1/285/16 289/285/16
f 21/301/26 299/301/26 298/308/26
f 37/309/3 39/300/3 308/300/3
f 57/299/12 317/299/12 316/303/12
f 13/310/22 295/310/22 294/289/22
f 31/311/32 304/311/32 303/64/32
f 49/312/8 313/312/8 312/287/8
f 5/298/18 291/298/18 290/302/18
f 21/301/27 23/297/27 300/297/27
f 41/296/4 309/296/4 308/300/4
f 59/295/13 318/295/13 317/299/13
f 15/313/23 296/313/23 295/310/23
f 33/314/33 305/314/33 304/311/33
f 51/315/9 314/315/9 313/312/9
f 7/294/19 292/294/19 291/298/19
f 25/293/28 301/293/28 300/297/28
f 43/292/5 310/292/5 309/296/5
f 59/295/14 61/291/14 319/291/14
f 17/316/24 297/316/24 296/313/24
f 33/314/1 35/317/1 306/317/1
f 53/318/10 315/318/10 314/315/10
f 9/290/20 293/290/20 292/294/20
f 27/65/29 302/65/29 301/293/29
f 45/288/6 311/288/6 310/292/6
f 63/286/15 320/286/15 319/291/15
f 19/308/25 298/308/25 297/316/25
f 37/309/2 307/309/2 306/317/2
f 55/303/11 316/303/11 315/318/11
f 11/289/21 294/289/21 293/290/21
f 343/285/75 370/286/75 508/286/75
f 373/64/75 384/65/75 512/65/75
f 358/311/75 373/64/75 466/64/75
f 348/187/75 351/186/75 461/186/75
f 332/319/75 371/217/75 489/217/75
f 369/314/75 358/311/75 491/311/75
f 356/317/75 369/314/75 463/314/75
f 367/309/75 356/317/75 490/317/75
f 351/186/75 346/320/75 458/320/75
f 371/217/75 330/215/75 462/215/75
f 370/286/75 344/291/75 503/291/75
f 328/300/75 367/309/75 459/309/75
f 380/296/75 328/300/75 460/300/75
f 346/320/75 372/321/75 455/321/75
f 330/215/75 382/213/75 487/213/75
f 344/291/75 349/295/75 483/295/75
f 361/292/75 380/296/75 507/296/75
f 352/288/75 361/292/75 457/292/75
f 359/287/75 352/288/75 488/288/75
f 372/321/75 347/322/75 451/322/75
f 382/213/75 365/211/75 486/211/75
f 321/303/75 353/318/75 450/318/75
f 324/312/75 359/287/75 453/287/75
f 376/315/75 324/312/75 454/312/75
f 347/322/75 345/323/75 452/323/75
f 365/211/75 354/209/75 484/209/75
f 338/324/75 331/325/75 504/325/75
f 353/318/75 376/315/75 506/315/75
f 374/299/75 321/303/75 485/303/75
f 354/209/75 363/207/75 482/207/75
f 331/325/75 329/326/75 502/326/75
f 349/295/75 374/299/75 505/299/75
f 284/186/75 285/320/75 443/320/75
f 13/310/75 11/289/75 394/289/75
f 258/183/75 259/327/75 391/327/75
f 31/311/75 29/64/75 412/64/75
f 285/320/75 286/321/75 445/321/75
f 259/327/75 260/328/75 393/328/75
f 49/312/75 47/287/75 430/287/75
f 286/321/75 287/322/75 447/322/75
f 260/328/75 261/324/75 395/324/75
f 287/322/75 288/323/75 448/323/75
f 15/313/75 13/310/75 396/310/75
f 261/324/75 262/325/75 397/325/75
f 33/314/75 31/311/75 414/311/75
f 262/325/75 263/326/75 399/326/75
f 51/315/75 49/312/75 432/312/75
f 263/326/75 264/329/75 401/329/75
f 17/316/75 15/313/75 398/313/75
f 264/329/75 265/330/75 403/330/75
f 35/317/75 33/314/75 416/314/75
f 265/330/75 266/331/75 405/331/75
f 53/318/75 51/315/75 434/315/75
f 266/331/75 267/332/75 407/332/75
f 19/308/75 17/316/75 400/316/75
f 267/332/75 268/333/75 409/333/75
f 37/309/75 35/317/75 418/317/75
f 268/333/75 269/334/75 411/334/75
f 3/302/75 1/307/75 385/307/75
f 55/303/75 53/318/75 436/318/75
f 269/334/75 270/319/75 413/319/75
f 21/301/75 19/308/75 402/308/75
f 270/319/75 271/217/75 415/217/75
f 39/300/75 37/309/75 420/309/75
f 387/182/75 389/183/75 339/183/75
f 439/187/75 441/186/75 351/186/75
f 398/313/75 396/310/75 364/310/75
f 424/296/75 422/300/75 328/300/75
f 448/190/75 387/182/75 342/182/75
f 437/192/75 439/187/75 348/187/75
f 435/195/75 437/192/75 322/192/75
f 396/310/75 394/289/75 333/289/75
f 422/300/75 420/309/75 367/309/75
f 385/285/75 446/286/75 370/286/75
f 433/198/75 435/195/75 355/195/75
f 431/201/75 433/198/75 350/198/75
f 394/289/75 392/290/75 366/290/75
f 420/309/75 418/317/75 356/317/75
f 446/286/75 444/291/75 344/291/75
f 429/203/75 431/201/75 357/201/75
f 427/205/75 429/203/75 378/203/75
f 392/290/75 390/294/75 337/294/75
f 418/317/75 416/314/75 369/314/75
f 444/291/75 442/295/75 349/295/75
f 425/207/75 427/205/75 326/205/75
f 423/209/75 425/207/75 363/207/75
f 390/294/75 388/298/75 368/298/75
f 416/314/75 414/311/75 358/311/75
f 442/295/75 440/299/75 374/299/75
f 421/211/75 423/209/75 354/209/75
f 419/213/75 421/211/75 365/211/75
f 388/298/75 386/302/75 341/302/75
f 414/311/75 412/64/75 373/64/75
f 440/299/75 438/303/75 321/303/75
f 417/215/75 419/213/75 382/213/75
f 415/217/75 417/215/75 330/215/75
f 441/186/75 443/320/75 346/320/75
f 389/183/75 391/327/75 340/327/75
f 426/292/75 424/296/75 380/296/75
f 400/316/75 398/313/75 383/313/75
f 443/320/75 445/321/75 372/321/75
f 391/327/75 393/328/75 335/328/75
f 445/321/75 447/322/75 347/322/75
f 393/328/75 395/324/75 338/324/75
f 428/288/75 426/292/75 361/292/75
f 402/308/75 400/316/75 381/316/75
f 447/322/75 448/323/75 345/323/75
f 395/324/75 397/325/75 331/325/75
f 397/325/75 399/326/75 329/326/75
f 430/287/75 428/288/75 352/288/75
f 404/301/75 402/308/75 362/308/75
f 399/326/75 401/329/75 336/329/75
f 401/329/75 403/330/75 327/330/75
f 432/312/75 430/287/75 359/287/75
f 406/297/75 404/301/75 379/301/75
f 403/330/75 405/331/75 325/331/75
f 405/331/75 407/332/75 334/332/75
f 434/315/75 432/312/75 324/312/75
f 408/293/75 406/297/75 377/297/75
f 407/332/75 409/333/75 323/333/75
f 409/333/75 411/334/75 375/334/75
f 436/318/75 434/315/75 376/315/75
f 410/65/75 408/293/75 360/293/75
f 411/334/75 413/319/75 332/319/75
f 413/319/75 415/217/75 371/217/75
f 438/303/75 436/318/75 353/318/75
f 412/64/75 410/65/75 384/65/75
f 386/302/75 385/307/75 343/307/75
f 451/322/76 452/323/76 509/285/76
f 503/291/77 455/321/77 451/322/77
f 458/320/78 455/321/78 503/291/78
f 505/299/79 461/186/79 458/320/79
f 485/303/80 464/187/80 461/186/80
f 449/192/81 464/187/81 485/303/81
f 469/195/82 449/192/82 450/318/82
f 454/312/83 472/198/83 469/195/83
f 475/201/84 472/198/84 454/312/84
f 488/288/85 478/203/85 475/201/85
f 456/205/86 478/203/86 488/288/86
f 482/207/87 456/205/87 457/292/87
f 484/209/88 482/207/88 507/296/88
f 459/309/89 486/211/89 484/209/89
f 490/317/90 487/213/90 486/211/90
f 463/314/91 462/215/91 487/213/91
f 489/217/92 462/215/92 463/314/92
f 465/319/93 489/217/93 491/311/93
f 492/334/94 465/319/94 466/64/94
f 494/333/95 492/334/95 512/65/95
f 468/297/96 467/332/96 494/333/96
f 498/331/97 467/332/97 468/297/97
f 500/330/98 498/331/98 510/301/98
f 471/316/99 470/329/99 500/330/99
f 502/326/100 470/329/100 471/316/100
f 497/310/101 504/325/101 502/326/101
f 496/289/102 474/324/102 504/325/102
f 499/290/103 473/328/103 474/324/103
f 477/294/104 476/327/104 473/328/104
f 501/298/105 481/183/105 476/327/105
f 479/182/106 481/183/106 501/298/106
f 509/307/107 452/190/107 479/182/107
f 375/334/75 332/319/75 465/319/75
f 322/192/75 348/187/75 464/187/75
f 384/65/75 360/293/75 493/293/75
f 360/293/75 377/297/75 468/297/75
f 377/297/75 379/301/75 510/301/75
f 323/333/75 375/334/75 492/334/75
f 355/195/75 322/192/75 449/192/75
f 379/301/75 362/308/75 495/308/75
f 362/308/75 381/316/75 471/316/75
f 381/316/75 383/313/75 511/313/75
f 334/332/75 323/333/75 494/333/75
f 350/198/75 355/195/75 469/195/75
f 383/313/75 364/310/75 497/310/75
f 364/310/75 333/289/75 496/289/75
f 335/328/75 338/324/75 474/324/75
f 333/289/75 366/290/75 499/290/75
f 325/331/75 334/332/75 467/332/75
f 357/201/75 350/198/75 472/198/75
f 366/290/75 337/294/75 477/294/75
f 337/294/75 368/298/75 501/298/75
f 327/330/75 325/331/75 498/331/75
f 378/203/75 357/201/75 475/201/75
f 368/298/75 341/302/75 480/302/75
f 341/302/75 343/307/75 509/307/75
f 336/329/75 327/330/75 500/330/75
f 326/205/75 378/203/75 478/203/75
f 340/327/75 335/328/75 473/328/75
f 339/183/75 340/327/75 476/327/75
f 342/182/75 339/183/75 481/183/75
f 345/190/75 342/182/75 479/182/75
f 329/326/75 336/329/75 470/329/75
f 363/207/75 326/205/75 456/205/75
f 515/196/33 514/199/33 513/323/33
f 516/193/32 515/196/32 576/322/32
f 517/189/30 516/193/30 575/321/30
f 518/188/29 517/189/29 574/320/29
f 519/335/28 518/188/28 573/186/28
f 520/282/27 519/335/27 572/187/27
f 570/195/26 521/281/26 520/282/26
f 522/336/25 521/281/25 570/195/25
f 523/337/24 522/336/24 569/198/24
f 567/203/23 524/344/23 523/337/23
f 525/338/22 524/344/22 567/203/22
f 526/339/21 525/338/21 566/205/21
f 527/340/20 526/339/20 565/207/20
f 528/283/19 527/340/19 564/209/19
f 529/284/18 528/283/18 563/211/18
f 530/341/17 529/284/17 562/213/17
f 531/342/16 530/341/16 561/215/16
f 532/216/15 531/342/15 560/217/15
f 533/214/14 532/216/14 559/319/14
f 534/212/13 533/214/13 558/334/13
f 535/210/12 534/212/12 557/333/12
f 536/208/11 535/210/11 556/332/11
f 537/206/10 536/208/10 555/331/10
f 538/204/9 537/206/9 554/330/9
f 539/202/8 538/204/8 553/329/8
f 540/200/7 539/202/7 552/326/7
f 541/197/6 540/200/6 551/325/6
f 542/194/5 541/197/5 550/324/5
f 543/191/4 542/194/4 549/328/4
f 544/185/3 543/191/3 548/327/3
f 545/184/2 544/185/2 547/183/2
f 514/343/1 545/184/1 546/182/1
f 204/188/34 518/188/34 519/335/34
f 284/186/66 573/186/66 574/320/66
f 177/184/34 545/184/34 514/343/34
f 258/183/66 547/183/66 548/327/66
f 203/335/34 519/335/34 520/282/34
f 286/321/66 285/320/66 574/320/66
f 259/327/66 548/327/66 549/328/66
f 202/282/34 520/282/34 521/281/34
f 287/322/66 286/321/66 575/321/66
f 260/328/66 549/328/66 550/324/66
f 201/281/34 521/281/34 522/336/34
f 287/322/66 576/322/66 513/323/66
f 261/324/66 550/324/66 551/325/66
f 200/336/34 522/336/34 523/337/34
f 263/326/66 262/325/66 551/325/66
f 198/344/34 199/337/34 523/337/34
f 263/326/66 552/326/66 553/329/66
f 198/344/34 524/344/34 525/338/34
f 264/329/66 553/329/66 554/330/66
f 197/338/34 525/338/34 526/339/34
f 266/331/66 265/330/66 554/330/66
f 196/339/34 526/339/34 527/340/34
f 266/331/66 555/331/66 556/332/66
f 195/340/34 527/340/34 528/283/34
f 267/332/66 556/332/66 557/333/66
f 194/283/34 528/283/34 529/284/34
f 269/334/66 268/333/66 557/333/66
f 193/284/34 529/284/34 530/341/34
f 269/334/66 558/334/66 559/319/66
f 192/341/34 530/341/34 531/342/34
f 270/319/66 559/319/66 560/217/66
f 190/216/34 191/342/34 531/342/34
f 488/288/22 591/288/22 580/292/22
f 503/291/30 600/291/30 589/295/30
f 477/294/20 587/294/20 598/290/20
f 501/298/19 599/298/19 587/294/19
f 507/296/20 603/296/20 582/300/20
f 508/286/32 604/286/32 600/291/32
f 459/309/18 581/309/18 592/317/18
f 480/302/18 588/302/18 599/298/18
f 509/307/17 605/307/17 588/302/17
f 460/300/19 582/300/19 581/309/19
f 463/314/16 583/314/16 593/311/16
f 490/317/17 592/317/17 583/314/17
f 466/64/14 584/64/14 608/65/14
f 491/311/15 593/311/15 584/64/15
f 509/285/33 605/285/33 604/286/33
f 493/293/29 594/293/29 608/65/29
f 483/295/29 589/295/29 601/299/29
f 510/301/27 606/301/27 585/297/27
f 468/297/28 585/297/28 594/293/28
f 495/308/26 595/308/26 606/301/26
f 505/299/28 601/299/28 590/303/28
f 450/318/26 577/318/26 602/315/26
f 471/316/24 511/313/24 607/313/24
f 471/316/25 586/316/25 595/308/25
f 511/313/23 497/310/23 597/310/23
f 454/312/25 506/315/25 602/315/25
f 485/303/27 590/303/27 577/318/27
f 453/287/23 578/287/23 591/288/23
f 496/289/22 596/289/22 597/310/22
f 499/290/21 598/290/21 596/289/21
f 454/312/24 579/312/24 578/287/24
f 457/292/21 580/292/21 603/296/21
f 640/345/33 609/503/33 672/346/33
f 639/348/32 640/345/32 671/347/32
f 638/350/30 639/348/30 670/349/30
f 637/352/29 638/350/29 669/351/29
f 636/354/28 637/352/28 668/353/28
f 635/356/27 636/354/27 667/355/27
f 634/358/26 635/356/26 666/357/26
f 633/360/25 634/358/25 665/359/25
f 632/362/24 633/360/24 664/361/24
f 631/364/23 632/362/23 663/363/23
f 630/366/22 631/364/22 662/365/22
f 629/368/21 630/366/21 661/367/21
f 628/370/20 629/368/20 660/369/20
f 627/372/19 628/370/19 659/371/19
f 626/374/18 627/372/18 658/373/18
f 625/376/17 626/374/17 657/375/17
f 624/378/16 625/376/16 656/377/16
f 623/380/15 624/378/15 655/379/15
f 622/382/14 623/380/14 654/381/14
f 621/384/13 622/382/13 653/383/13
f 620/386/12 621/384/12 652/385/12
f 619/388/11 620/386/11 651/387/11
f 649/390/10 618/504/10 619/388/10
f 617/391/9 618/504/9 649/390/9
f 616/393/8 617/391/8 648/392/8
f 615/395/7 616/393/7 647/394/7
f 614/397/6 615/395/6 646/396/6
f 613/399/5 614/397/5 645/398/5
f 612/401/4 613/399/4 644/400/4
f 611/403/3 612/401/3 643/402/3
f 610/405/2 611/403/2 642/404/2
f 672/407/1 609/505/1 610/405/1
f 672/408/1 641/506/1 210/231/1
f 210/231/2 641/506/2 642/409/2
f 642/409/3 643/410/3 212/275/3
f 643/410/4 644/411/4 213/273/4
f 644/411/5 645/412/5 214/271/5
f 645/412/6 646/507/6 215/269/6
f 215/269/7 646/507/7 647/413/7
f 647/413/8 648/415/8 217/414/8
f 648/415/9 649/416/9 218/264/9
f 649/416/10 650/417/10 219/262/10
f 650/417/11 651/418/11 220/260/11
f 651/418/12 652/419/12 221/258/12
f 652/419/13 653/420/13 222/256/13
f 653/420/14 654/421/14 223/254/14
f 654/421/15 655/422/15 224/252/15
f 655/422/16 656/424/16 225/423/16
f 656/424/17 657/425/17 226/250/17
f 657/425/18 658/426/18 227/246/18
f 658/426/19 659/427/19 228/244/19
f 659/427/20 660/428/20 229/242/20
f 660/428/21 661/508/21 230/240/21
f 230/240/22 661/508/22 662/429/22
f 662/429/23 663/430/23 232/236/23
f 663/430/24 664/431/24 233/233/24
f 664/431/25 665/432/25 234/280/25
f 665/432/26 666/433/26 235/229/26
f 666/433/27 667/434/27 236/227/27
f 667/434/28 668/435/28 237/225/28
f 668/435/29 669/436/29 238/223/29
f 669/436/30 670/437/30 239/221/30
f 670/437/32 671/438/32 240/218/32
f 671/438/33 672/509/33 209/439/33
